<svg xmlns="http://www.w3.org/2000/svg" width="805" height="397"><rect width="805" height="397" x="0" y="0" fill="#FFFFFF" id="background"/><g id="viz"><g transform="translate(0,0)"><g transform="translate(10,20)"><g><path fill="#9467bd" d="M0,215.1328698535581L2.842340733686487,214.81466158619904C5.684681467372974,214.49645331883997,11.369362934745949,213.8600367841219,17.054044402118922,213.6715518389492C22.738725869491898,213.48306689377645,28.42340733686487,213.74251353814918,34.108088804237845,213.9653593383906C39.79277027161081,214.18820513863207,45.47745173898378,214.3744500947423,51.16992044124357,215.6720853175095C56.86238914350336,216.96972054027665,62.56264508064995,219.37874602970086,68.25511378290975,219.86135894825668C73.94758248516952,220.3439718668125,79.63226395254252,218.9001722145,85.31694541991548,216.68666862252084C91.00162688728847,214.47316503054165,96.68630835466143,211.48995749889582,102.37098982203442,209.68162357206458C108.05567128940739,207.87328964523337,113.74035275678035,207.2398293232167,119.43282145904014,206.50005569706045C125.12529016129992,205.76028207090417,130.8255460984465,204.91419514060837,136.5180148007063,202.64962963889192C142.21048350296607,200.38506413717542,147.89516497033904,196.70202006403835,153.57984643771204,192.6882735343197C159.26452790508503,188.67452700460103,164.949209372458,184.33007801830084,170.63389083983097,168.3555314760944C176.31857230720394,152.38098493388793,182.00325377457693,124.77634083577523,187.69572247683672,111.34677969263139C193.38819117909648,97.91721854948749,199.0884471162431,98.66274036131249,204.78091581850288,98.46555050827601C210.47338452076266,98.26836065523956,216.15806598813563,97.12845913734166,221.8427474555086,94.45527769459459C227.52742892288157,91.78209625184752,233.21211039025457,87.57563488425127,238.8967918576275,84.07212821265743C244.5814733250005,80.56862154106356,250.26615479237344,77.76806956547209,255.95829902651295,76.30611820175875C261.6504432606525,74.84416683804541,267.3500502615585,74.7208160862102,273.042194495698,73.19133236833709C278.73433872983753,71.66184865046395,284.4190201972105,68.72623196655292,290.10370166458347,87.83061985619084C295.78838313195644,106.93500774582874,301.4730645993294,148.0794002090156,307.1577460667024,170.4142751070655C312.84242753407534,192.7491500051154,318.5271090014483,196.27450733802834,324.2195777037081,200.88197793933125C329.91204640596794,205.48944854063416,335.61230234311455,211.17903241032707,341.30509551349456,217.93032110427802C346.99788868387463,224.68160979822895,352.6832190874882,232.49460331643795,358.36822502298145,239.60794260186867C364.0532309584748,246.7212818872994,369.7379124258477,253.1349669399519,375.42259389322066,258.0605781379499C381.10727536059363,262.9861893359479,386.79195682796654,266.42372667929146,392.4844255302264,268.65239123346447C398.1768942324862,270.8810557876375,403.8771501696328,271.90084755264,409.56961887189254,274.90251142182484C415.2620875741524,277.9041752910098,420.94676904152533,282.88771126437706,426.6314505088983,288.67913153144974C432.31613197627127,294.4705517985224,438.0008134436442,301.06985635930056,443.6854949110172,305.3111983740487C449.37017637839017,309.5525403887967,455.05485784576314,311.43591985751476,460.74732654802284,311.4616342746495C466.4397952502827,311.48734869178435,472.14005118742926,309.65539805733596,477.8325198896891,308.34347292756536C483.5249885919489,307.03154779779476,489.2096700593218,306.23964817270206,494.89435152669483,304.08171657233225C500.5790329940678,301.9237849719625,506.26371446144077,298.39982139631564,511.9483959288137,297.6832861127694C517.6330773961868,296.96675082922314,523.3177588635598,299.05764383777756,529.0102275658195,299.5616498966163C534.7026962680793,300.06565595545504,540.4029522052259,298.9827750645782,546.0954209074856,297.01524284984635C551.7878896097454,295.0477106351145,557.4725710771185,292.1955270965277,563.1572525444914,288.568847350766C568.8419340118644,284.9421676050043,574.5266154792374,280.5409916520677,580.21097247849,274.98317315731396C585.8953294777427,269.4253546625602,591.5793620088751,262.7108936259894,597.2715062430146,258.0053288428187C602.9636504771541,253.29976405964808,608.6639064143008,250.6030955298777,614.3566995846808,247.88041607550068C620.0494927550609,245.1577366211237,625.7348231586744,242.40904624214002,631.4198290941677,240.89438875458487C637.104835029661,239.3797312670298,642.789516497034,239.0991066709032,648.4741979644069,238.58953057283406C654.1588794317798,238.07995447476492,659.8435608991527,237.34142687475324,665.5360296014126,236.8587049911513C671.2284983036724,236.3759831075494,676.928754240819,236.14906694035722,682.6212229430788,235.42715247176417C688.3136916453386,234.7052380031711,693.9983731127114,233.48832523317716,699.6830545800844,232.89079668645763C705.3677360474575,232.2932681397382,711.0524175148306,232.31512381629318,716.7370989822035,233.3601713009226C722.4217804495765,234.40521878555205,728.1064619169493,236.47345807825602,733.7989306192093,238.87343676397572C739.491399321469,241.27341544969542,745.1916552586157,244.0051335284309,750.8841239608754,246.4244490807632C756.5765926631351,248.84376463309547,762.261274130508,250.9506776590246,767.945955597881,253.35160028367685C773.6306370652541,255.7525229083291,779.315318532627,258.44745513170454,782.1576592663135,259.7949212433923L785,261.14238735508L785,261.14238735508L782.1576592663135,259.7949212433923C779.315318532627,258.44745513170454,773.6306370652541,255.7525229083291,767.945955597881,253.3516002836769C762.261274130508,250.9506776590246,756.5765926631351,248.84376463309547,750.8841239608754,246.42444908076322C745.1916552586157,244.0051335284309,739.491399321469,241.27341544969542,733.7989306192093,238.87343676397572C728.1064619169493,236.47345807825602,722.4217804495765,234.40521878555205,716.7370989822035,233.36017130092262C711.0524175148306,232.31512381629318,705.3677360474575,232.2932681397382,699.6830545800844,232.89079668645763C693.9983731127114,233.48832523317716,688.3136916453386,234.7052380031711,682.6212229430788,235.42715247176412C676.928754240819,236.14906694035722,671.2284983036724,236.3759831075494,665.5360296014126,236.8587049911513C659.8435608991527,237.34142687475324,654.1588794317798,238.07995447476492,648.4741979644069,238.58953057283406C642.789516497034,239.0991066709032,637.104835029661,239.3797312670298,631.4198290941677,240.89438875458487C625.7348231586744,242.40904624214002,620.0494927550609,245.1577366211237,614.3566995846808,247.8830655261867C608.6639064143008,250.60839443124974,602.9636504771541,253.31036186239223,597.2715062430146,258.0250990958164C591.5793620088751,262.7398363292407,585.8953294777427,269.4673433649467,580.21097247849,275.03414495046525C574.5266154792374,280.60094653598384,568.8419340118644,285.0070426713149,563.1572525444914,288.66706401543524C557.4725710771185,292.3270853595556,551.7878896097454,295.24103191246536,546.0954209074856,297.27645221362593C540.4029522052259,299.3118725147865,534.7026962680793,300.46876656419795,529.0102275658195,300.29461354034066C523.3177588635598,300.1204605164833,517.6330773961868,298.6152604193573,511.9483959288137,299.99143384305523C506.26371446144077,301.36760726675317,500.5790329940678,305.625154211275,494.89435152669483,308.7112768757365C489.2096700593218,311.79739954019794,483.5249885919489,313.712097924599,477.8325198896891,316.6059128731476C472.14005118742926,319.49972782169624,466.4397952502827,323.3726593343924,460.74732654802295,326.2677708053207C455.05485784576314,329.16288227624904,449.37017637839017,331.0801737054095,443.6854949110172,330.4060532999501C438.0008134436442,329.7319328944906,432.31613197627127,326.46640065441125,426.6314505088983,322.99394885468587C420.94676904152533,319.52149705496043,415.2620875741524,315.842125695589,409.56961887189254,315.4135788086208C403.8771501696328,314.98503192165253,398.1768942324862,317.8073095070875,392.4844255302264,319.6014817685229C386.79195682796654,321.39565402995817,381.10727536059363,322.1617209673938,375.42259389322066,322.67976292043323C369.7379124258477,323.19780487347276,364.0532309584748,323.46782184211605,358.36822502298145,319.8900875168833C352.6832190874882,316.3123531916504,346.99788868387463,308.88686757254146,341.30509551349456,303.65852207535096C335.61230234311455,298.4301765781604,329.91204640596794,295.39897120288833,324.2195777037081,291.81681069512916C318.5271090014483,288.23465018737005,312.84242753407534,284.1015345471238,307.1577460667024,264.42838530781347C301.4730645993294,244.7552360685031,295.78838313195644,209.54205323012874,290.10370166458347,193.41003897429502C284.4190201972105,177.27802471846124,278.73433872983753,180.22717904516813,273.042194495698,182.11031177163292C267.3500502615585,183.99344449809772,261.6504432606525,184.81055562432047,255.95829902651295,184.76907223398004C250.26615479237344,184.7275888436396,244.5814733250005,183.82751093673605,238.8967918576275,183.3422567974903C233.21211039025457,182.85700265824457,227.52742892288157,182.78657228665665,221.84274745550863,183.07161788985331C216.15806598813563,183.35666349304998,210.47338452076266,183.99718507103125,204.78091581850288,184.28217125973438C199.0884471162431,184.56715744843748,193.38819117909648,184.49660824786247,187.69572247683672,195.2451370817772C182.00325377457693,205.99366591569188,176.31857230720394,227.56127278409625,170.63389083983097,238.3233330894544C164.949209372458,249.0853933948125,159.26452790508503,249.0419071371244,153.57984643771204,251.12478717443682C147.89516497033904,253.20766721174917,142.21048350296607,257.4169135440621,136.5180148007063,259.82804846964774C130.8255460984465,262.23918339523334,125.12529016129992,262.85220691409165,119.43282145904014,265.0418679858833C113.74035275678035,267.231529057675,108.05567128940739,270.9978276824,102.3709898220344,276.91785098516874C96.68630835466143,282.8378742879375,91.00162688728847,290.91162226875,85.31694541991548,293.17506117375C79.63226395254252,295.43850007875,73.94758248516952,291.8916299079375,68.25511378290975,287.0551867913683C62.56264508064995,282.2187436747992,56.86238914350336,276.0927276124733,51.16992044124357,271.8546938866989C45.47745173898378,267.61666016092437,39.79277027161081,265.2666087717012,34.108088804237845,264.1621745208177C28.42340733686487,263.0577402699342,22.738725869491898,263.1989231573902,17.054044402118922,263.52312278103C11.369362934745949,263.8473224046698,5.684681467372974,264.3545387644934,2.842340733686487,264.6081469444052L0,264.8617551243169Z"><title>Tape</title></path><path fill="#1f77b4" d="M0,264.8617551243169L2.842340733686487,264.6081469444052C5.684681467372974,264.3545387644934,11.369362934745949,263.8473224046698,17.054044402118922,263.52312278103C22.738725869491898,263.1989231573902,28.42340733686487,263.0577402699342,34.108088804237845,264.1621745208177C39.79277027161081,265.2666087717012,45.47745173898378,267.61666016092437,51.16992044124357,271.8546938866989C56.86238914350336,276.0927276124733,62.56264508064995,282.2187436747992,68.25511378290975,287.0551867913683C73.94758248516952,291.8916299079375,79.63226395254252,295.43850007875,85.31694541991548,293.17506117375C91.00162688728847,290.91162226875,96.68630835466143,282.8378742879375,102.37098982203442,276.91785098516874C108.05567128940739,270.9978276824,113.74035275678035,267.231529057675,119.43282145904014,265.0418679858833C125.12529016129992,262.85220691409165,130.8255460984465,262.23918339523334,136.5180148007063,259.99471513631437C142.21048350296607,257.75024687739545,147.89516497033904,253.87433387841585,153.57984643771204,251.9581205077701C159.26452790508503,250.0419071371244,164.949209372458,250.0853933948125,170.63389083983097,250.76021763138354C176.31857230720394,251.4350418679546,182.00325377457693,252.74120408340855,187.69572247683672,251.35733608030424C193.38819117909648,249.97346807719998,199.0884471162431,245.8995698555375,204.78091581850288,241.34815170550732C210.47338452076266,236.79673355547706,216.15806598813563,231.76779547707918,221.8427474555086,222.11808904307205C227.52742892288157,212.468382609065,233.21211039025457,198.19790781944872,238.8967918576275,191.51270937809238C244.5814733250005,184.82751093673605,250.26615479237344,185.7275888436396,255.95829902651295,185.76907223398004C261.6504432606525,185.81055562432047,267.3500502615585,184.99344449809772,273.042194495698,183.11031177163295C278.73433872983753,181.22717904516813,284.4190201972105,178.27802471846124,290.10370166458347,158.60346785213687C295.78838313195644,138.9289109858125,301.4730645993294,102.52895157987064,307.1577460667024,82.17415741569761C312.84242753407534,61.81936325152458,318.5271090014483,57.50973432912042,324.2195777037081,53.70467519796187C329.91204640596794,49.89961606680333,335.61230234311455,46.59912672689041,341.30509551349456,41.17645309448948C346.99788868387463,35.75377946208855,352.6832190874882,28.208921537199604,358.36822502298145,24.623036056347843C364.0532309584748,21.037150575496074,369.7379124258477,21.410237538681486,375.42259389322066,21.900334973604288C381.10727536059363,22.390432408527094,386.79195682796654,22.997540315187297,392.4844255302264,24.45535553957072C398.1768942324862,25.913170763954145,403.8771501696328,28.221693306060796,409.56961887189254,26.879971081797773C415.2620875741524,25.53824885753475,420.94676904152533,20.546281866902053,426.6314505088983,16.96475297090602C432.31613197627127,13.383224074909984,438.0008134436442,11.212133273550611,443.6854949110172,11.509135633434086C449.37017637839017,11.806137993317565,455.05485784576314,14.571233514443897,460.74732654802284,17.716522418176616C466.4397952502827,20.861811321909332,472.14005118742926,24.38729360824844,477.8325198896891,28.524170488948304C483.5249885919489,32.66104736964817,489.2096700593218,37.40931884470879,494.89435152669483,41.25670376129295C500.5790329940678,45.104088677877094,506.26371446144077,48.05058703598479,511.9483959288137,49.23022697188296C517.6330773961868,50.409866907781144,523.3177588635598,49.822648421469815,529.0102275658195,50.29730444489189C534.7026962680793,50.77196046831398,540.4029522052259,52.30849100146946,546.0954209074856,54.53372954450205C551.7878896097454,56.75896808753465,557.4725710771185,59.67291464044436,563.1572525444914,63.33293598456475C568.8419340118644,66.99295732868514,574.5266154792374,71.3990534640162,580.21097247849,76.96585504953475C585.8953294777427,82.5326566350533,591.5793620088751,89.26016367075933,597.2715062430146,94.14156757085023C602.9636504771541,99.02297147094113,608.6639064143008,102.05827223541691,614.3566995846808,104.95026780714663C620.0494927550609,107.84226337887634,625.7348231586744,110.59095375785999,631.4198290941677,112.1056112454151C637.104835029661,113.6202687329702,642.789516497034,113.90089332909679,648.4741979644069,122.90372367992967C654.1588794317798,131.90655403076255,659.8435608991527,149.63159013630175,665.5360296014126,158.2263686050372C671.2284983036724,166.82114707377266,676.928754240819,166.28566790570446,682.6212229430788,170.57585395787103C688.3136916453386,174.86604001003766,693.9983731127114,183.98189128243914,699.6830545800844,189.21395859794995C705.3677360474575,194.44602591346074,711.0524175148306,195.7943092720809,716.7370989822035,198.3604780640782C722.4217804495765,200.92664685607545,728.1064619169493,204.7107010814498,733.7989306192093,208.17024214420323C739.491399321469,211.62978320695666,745.1916552586157,214.76481110708914,750.8841239608754,218.21819225725142C756.5765926631351,221.6715734074137,762.261274130508,225.44330780760575,767.945955597881,228.78144940748527C773.6306370652541,232.11959100736473,779.315318532627,235.02413980693163,782.1576592663135,236.47641420671508L785,237.92868860649853L785,247.07866942741475L782.1576592663135,245.86674958438758C779.315318532627,244.65482974136037,773.6306370652541,242.23099005530602,767.945955597881,240.10783595735623C762.261274130508,237.98468185940646,756.5765926631351,236.16221334956126,750.8841239608754,233.9335137520674C745.1916552586157,231.70481415457357,739.491399321469,229.06988346943112,733.7989306192093,226.7404613763879C728.1064619169493,224.4110392833447,722.4217804495765,222.38712578240074,716.7370989822035,221.59822423672435C711.0524175148306,220.8093226910479,705.3677360474575,221.25543310063904,699.6830545800844,217.98746726158674C693.9983731127114,214.71950142253436,688.3136916453386,207.73745933483852,682.6212229430788,205.5543607723367C676.928754240819,203.37126220983487,671.2284983036724,205.9871071725271,665.5360296014126,200.309133433256C659.8435608991527,194.63115969398487,654.1588794317798,180.65936725275046,648.4741979644069,174.64737912375793C642.789516497034,168.63539099476543,637.104835029661,170.58320717801482,631.4198290941677,173.09301427730813C625.7348231586744,175.60282137660144,620.0494927550609,178.67461939193865,614.3566995846808,182.04342274644873C608.6639064143008,185.41222610095883,602.9636504771541,189.07803479464187,597.2715062430146,194.2547487376073C591.5793620088751,199.43146268057274,585.8953294777427,206.1190818728206,580.21097247849,213.93455082938658C574.5266154792374,221.75001978595253,568.8419340118644,230.69333850683654,563.1572525444914,238.40925485121178C557.4725710771185,246.12517119558706,551.7878896097454,252.61368516345348,546.0954209074856,259.39262488205776C540.4029522052259,266.17156460066195,534.7026962680793,273.24093007000397,529.0102275658195,277.4647988704754C523.3177588635598,281.6886676709469,517.6330773961868,283.06703980254787,511.9483959288137,285.87725604950737C506.26371446144077,288.68747229646686,500.5790329940678,292.92953265878504,494.89435152669483,296.6592052402415C489.2096700593218,300.3888778216979,483.5249885919489,303.60616262229274,477.8325198896891,306.1307803398143C472.14005118742926,308.65539805733596,466.4397952502827,310.48734869178435,460.74732654802295,310.4616342746495C455.05485784576314,310.43591985751476,449.37017637839017,308.5525403887967,443.6854949110172,304.3111983740487C438.0008134436442,300.06985635930056,432.31613197627127,293.4705517985224,426.6314505088983,287.67913153144974C420.94676904152533,281.88771126437706,415.2620875741524,276.9041752910098,409.56961887189254,273.9025114218249C403.8771501696328,270.90084755264,398.1768942324862,269.8810557876375,392.4844255302264,267.65239123346447C386.79195682796654,265.42372667929146,381.10727536059363,261.9861893359479,375.42259389322066,257.0605781379499C369.7379124258477,252.1349669399519,364.0532309584748,245.7212818872994,358.36822502298145,238.60794260186867C352.6832190874882,231.49460331643795,346.99788868387463,223.68160979822895,341.30509551349456,216.93032110427802C335.61230234311455,210.17903241032707,329.91204640596794,204.48944854063416,324.2195777037081,199.88197793933125C318.5271090014483,195.27450733802834,312.84242753407534,191.7491500051154,307.1577460667024,204.6045959890703C301.4730645993294,217.46004197302523,295.78838313195644,246.69629127384792,290.10370166458347,259.24854110973087C284.4190201972105,271.80079094561376,278.73433872983753,267.66904131655684,273.042194495698,264.0344655123983C267.3500502615585,260.39988970823975,261.6504432606525,257.2624877289796,255.95829902651295,252.88546030924337C250.26615479237344,248.50843288950708,244.5814733250005,242.89178002929478,238.8967918576275,243.70617280110093C233.21211039025457,244.52056557290703,227.52742892288157,251.76600397673164,221.84274745550863,254.81877241969497C216.15806598813563,257.8715408626583,210.47338452076266,256.7316393447604,204.78091581850288,256.534449491724C199.0884471162431,256.3372596386875,193.38819117909648,257.0827814505125,187.69572247683672,256.2817593107603C182.00325377457693,255.48073717100814,176.31857230720394,253.13317107967873,170.63389083983097,251.82819068252854C164.949209372458,250.52321028537835,159.26452790508503,250.2608155824073,153.57984643771204,252.06757473041156C147.89516497033904,253.87433387841585,142.21048350296607,257.75024687739545,136.5180148007063,259.99471513631437C130.8255460984465,262.23918339523334,125.12529016129992,262.85220691409165,119.43282145904014,265.0418679858833C113.74035275678035,267.231529057675,108.05567128940739,270.9978276824,102.3709898220344,276.91785098516874C96.68630835466143,282.8378742879375,91.00162688728847,290.91162226875,85.31694541991548,293.17506117375C79.63226395254252,295.43850007875,73.94758248516952,291.8916299079375,68.25511378290975,287.0551867913683C62.56264508064995,282.2187436747992,56.86238914350336,276.0927276124733,51.16992044124357,271.8546938866989C45.47745173898378,267.61666016092437,39.79277027161081,265.2666087717012,34.108088804237845,264.1621745208177C28.42340733686487,263.0577402699342,22.738725869491898,263.1989231573902,17.054044402118922,263.52312278103C11.369362934745949,263.8473224046698,5.684681467372974,264.3545387644934,2.842340733686487,264.6081469444052L0,264.8617551243169Z"><title>Disc</title></path><path fill="#ff7f0e" d="M0,264.8617551243169L2.842340733686487,264.6081469444052C5.684681467372974,264.3545387644934,11.369362934745949,263.8473224046698,17.054044402118922,263.52312278103C22.738725869491898,263.1989231573902,28.42340733686487,263.0577402699342,34.108088804237845,264.1621745208177C39.79277027161081,265.2666087717012,45.47745173898378,267.61666016092437,51.16992044124357,271.8546938866989C56.86238914350336,276.0927276124733,62.56264508064995,282.2187436747992,68.25511378290975,287.0551867913683C73.94758248516952,291.8916299079375,79.63226395254252,295.43850007875,85.31694541991548,293.17506117375C91.00162688728847,290.91162226875,96.68630835466143,282.8378742879375,102.37098982203442,276.91785098516874C108.05567128940739,270.9978276824,113.74035275678035,267.231529057675,119.43282145904014,265.0418679858833C125.12529016129992,262.85220691409165,130.8255460984465,262.23918339523334,136.5180148007063,259.82804846964774C142.21048350296607,257.4169135440621,147.89516497033904,253.20766721174917,153.57984643771204,251.40090806374488C159.26452790508503,249.59414891574065,164.949209372458,250.189876952045,170.63389083983097,251.66152401586191C176.31857230720394,253.13317107967873,182.00325377457693,255.48073717100814,187.69572247683672,256.2817593107603C193.38819117909648,257.0827814505125,199.0884471162431,256.3372596386875,204.78091581850288,256.53444949172393C210.47338452076266,256.7316393447604,216.15806598813563,257.8715408626583,221.8427474555086,260.5447223054054C227.52742892288157,263.2179037481525,233.21211039025457,267.42436511574874,238.8967918576275,270.7612051206759C244.5814733250005,274.09804512560316,250.26615479237344,276.56526376786127,255.95829902651295,277.8605484649079C261.6504432606525,279.1558331619546,267.3500502615585,279.27918391378984,273.042194495698,280.80866763166296C278.73433872983753,282.3381513495361,284.4190201972105,285.2737680334471,290.10370166458347,286.6851802268548C295.78838313195644,288.09659242026254,301.4730645993294,287.9838001231669,307.1577460667024,290.0822184358212C312.84242753407534,292.1806367484754,318.5271090014483,296.4902656708796,324.2195777037081,300.2953248020381C329.91204640596794,304.10038393319667,335.61230234311455,307.4008732731096,341.30509551349456,312.8235469055105C346.99788868387463,318.2462205379115,352.6832190874882,325.79107846280044,358.36822502298145,329.37696394365224C364.0532309584748,332.962849424504,369.7379124258477,332.58976246131857,375.42259389322066,332.0996650263957C381.10727536059363,331.60956759147297,386.79195682796654,331.0024596848127,392.4844255302264,329.54464446042925C398.1768942324862,328.08682923604584,403.8771501696328,325.77830669393916,409.56961887189254,327.1200289182022C415.2620875741524,328.46175114246523,420.94676904152533,333.45371813309794,426.6314505088983,337.03524702909397C432.31613197627127,340.61677592509,438.0008134436442,342.7878667264493,443.6854949110172,342.49086436656586C449.37017637839017,342.1938620066824,455.05485784576314,339.42876648555614,460.74732654802284,336.28347758182343C466.4397952502827,333.1381886780907,472.14005118742926,329.61270639175154,477.8325198896891,325.4758295110517C483.5249885919489,321.3389526303518,489.2096700593218,316.5906811552912,494.89435152669483,312.40996290537373C500.5790329940678,308.2292446554563,506.26371446144077,304.6160796306819,511.9483959288137,301.75320868026375C517.6330773961868,298.8903377298456,523.3177588635598,296.7777608537838,529.0102275658195,289.9609749413525C534.7026962680793,283.14418902892123,540.4029522052259,271.6231940801206,546.0954209074856,262.61843962178705C551.7878896097454,253.61368516345348,557.4725710771185,247.12517119558706,563.1572525444914,239.40925485121178C568.8419340118644,231.69333850683654,574.5266154792374,222.75001978595253,580.21097247849,214.93455082938658C585.8953294777427,207.1190818728206,591.5793620088751,200.43146268057274,597.2715062430146,195.2547487376073C602.9636504771541,190.07803479464187,608.6639064143008,186.41222610095883,614.3566995846808,183.04342274644873C620.0494927550609,179.67461939193865,625.7348231586744,176.60282137660144,631.4198290941677,174.09301427730813C637.104835029661,171.58320717801485,642.789516497034,169.63539099476543,648.4741979644069,160.11307055543114C654.1588794317798,150.5907501160968,659.8435608991527,133.49392542067764,665.5360296014126,125.05897115656411C671.2284983036724,116.6240168924506,676.928754240819,116.85093305964278,682.6212229430788,117.57284752823584C688.3136916453386,118.29476199682888,693.9983731127114,119.51167476682285,699.6830545800844,126.5100864222465C705.3677360474575,133.50849807767017,711.0524175148306,146.2884086185235,716.7370989822035,155.87312256641113C722.4217804495765,165.45783651429875,728.1064619169493,171.84735386922065,733.7989306192093,177.86019103621553C739.491399321469,183.8730282032104,745.1916552586157,189.50918518227823,750.8841239608754,195.22114916858928C756.5765926631351,200.93311315490033,762.261274130508,206.7208841484546,767.945955597881,211.5672196088565C773.6306370652541,216.41355506925842,779.315318532627,220.31845499650797,782.1576592663135,222.27090496013275L785,224.22335492375754L785,236.92868860649853L782.1576592663135,235.47641420671505C779.315318532627,234.02413980693163,773.6306370652541,231.11959100736473,767.945955597881,227.7814494074852C762.261274130508,224.44330780760575,756.5765926631351,220.6715734074137,750.8841239608754,217.21819225725142C745.1916552586157,213.76481110708914,739.491399321469,210.62978320695666,733.7989306192093,207.17024214420323C728.1064619169493,203.7107010814498,722.4217804495765,199.92664685607545,716.7370989822035,192.30111880421987C711.0524175148306,184.67559075236423,705.3677360474575,173.2085888740274,699.6830545800844,167.9765215585166C693.9983731127114,162.74445424300578,688.3136916453386,163.74732149032099,682.6212229430788,164.5164946980127C676.928754240819,165.28566790570446,671.2284983036724,165.82114707377266,665.5360296014126,174.4871867129035C659.8435608991527,183.1532263520343,654.1588794317798,199.94982646222766,648.4741979644069,208.97437785812508C642.789516497034,217.99892925402253,637.104835029661,219.25143193562403,631.4198290941677,221.44332143178917C625.7348231586744,223.63521092795438,620.0494927550609,226.76648723868323,614.3566995846808,230.2133160501098C608.6639064143008,233.66014486153634,602.9636504771541,237.4225261736606,597.2715062430146,242.05540575562316C591.5793620088751,246.68828533758565,585.8953294777427,252.1916631893865,580.21097247849,257.2877728471162C574.5266154792374,262.3838825048459,568.8419340118644,267.07272396850453,563.1572525444914,270.47359142103727C557.4725710771185,273.87445887356995,551.7878896097454,275.9873523149768,546.0954209074856,280.4203197610894C540.4029522052259,284.85328720720184,534.7026962680793,291.60632865802,529.0102275658195,295.42344013294064C523.3177588635598,299.2405516078613,517.6330773961868,300.1217331068844,511.9483959288137,302.36890636878314C506.26371446144077,304.6160796306819,500.5790329940678,308.2292446554563,494.89435152669483,312.40996290537373C489.2096700593218,316.5906811552912,483.5249885919489,321.3389526303518,477.8325198896891,325.4758295110517C472.14005118742926,329.61270639175154,466.4397952502827,333.1381886780907,460.74732654802295,336.28347758182343C455.05485784576314,339.42876648555614,449.37017637839017,342.1938620066824,443.6854949110172,342.49086436656586C438.0008134436442,342.7878667264493,432.31613197627127,340.61677592509,426.6314505088983,337.03524702909397C420.94676904152533,333.45371813309794,415.2620875741524,328.46175114246523,409.56961887189254,327.1200289182022C403.8771501696328,325.77830669393916,398.1768942324862,328.08682923604584,392.4844255302264,329.54464446042925C386.79195682796654,331.0024596848127,381.10727536059363,331.60956759147297,375.42259389322066,332.0996650263957C369.7379124258477,332.58976246131857,364.0532309584748,332.962849424504,358.36822502298145,329.37696394365224C352.6832190874882,325.79107846280044,346.99788868387463,318.2462205379115,341.30509551349456,312.8235469055105C335.61230234311455,307.4008732731096,329.91204640596794,304.10038393319667,324.2195777037081,300.2953248020381C318.5271090014483,296.4902656708796,312.84242753407534,292.1806367484754,307.1577460667024,290.0822184358212C301.4730645993294,287.9838001231669,295.78838313195644,288.09659242026254,290.10370166458347,286.6851802268548C284.4190201972105,285.2737680334471,278.73433872983753,282.3381513495361,273.042194495698,280.80866763166296C267.3500502615585,279.27918391378984,261.6504432606525,279.1558331619546,255.95829902651295,277.86054846490794C250.26615479237344,276.56526376786127,244.5814733250005,274.09804512560316,238.8967918576275,270.7612051206759C233.21211039025457,267.42436511574874,227.52742892288157,263.2179037481525,221.84274745550863,260.5447223054054C216.15806598813563,257.8715408626583,210.47338452076266,256.7316393447604,204.78091581850288,256.534449491724C199.0884471162431,256.3372596386875,193.38819117909648,257.0827814505125,187.69572247683672,256.2817593107603C182.00325377457693,255.48073717100814,176.31857230720394,253.13317107967873,170.63389083983097,251.6615240158619C164.949209372458,250.189876952045,159.26452790508503,249.59414891574065,153.57984643771204,251.40090806374488C147.89516497033904,253.20766721174917,142.21048350296607,257.4169135440621,136.5180148007063,259.82804846964774C130.8255460984465,262.23918339523334,125.12529016129992,262.85220691409165,119.43282145904014,265.0418679858833C113.74035275678035,267.231529057675,108.05567128940739,270.9978276824,102.3709898220344,276.91785098516874C96.68630835466143,282.8378742879375,91.00162688728847,290.91162226875,85.31694541991548,293.17506117375C79.63226395254252,295.43850007875,73.94758248516952,291.8916299079375,68.25511378290975,287.0551867913683C62.56264508064995,282.2187436747992,56.86238914350336,276.0927276124733,51.16992044124357,271.8546938866989C45.47745173898378,267.61666016092437,39.79277027161081,265.2666087717012,34.108088804237845,264.1621745208177C28.42340733686487,263.0577402699342,22.738725869491898,263.1989231573902,17.054044402118922,263.52312278103C11.369362934745949,263.8473224046698,5.684681467372974,264.3545387644934,2.842340733686487,264.6081469444052L0,264.8617551243169Z"><title>Download</title></path><path fill="#2ca02c" d="M0,264.8617551243169L2.842340733686487,264.6081469444052C5.684681467372974,264.3545387644934,11.369362934745949,263.8473224046698,17.054044402118922,263.52312278103C22.738725869491898,263.1989231573902,28.42340733686487,263.0577402699342,34.108088804237845,264.1621745208177C39.79277027161081,265.2666087717012,45.47745173898378,267.61666016092437,51.16992044124357,271.8546938866989C56.86238914350336,276.0927276124733,62.56264508064995,282.2187436747992,68.25511378290975,287.0551867913683C73.94758248516952,291.8916299079375,79.63226395254252,295.43850007875,85.31694541991548,293.17506117375C91.00162688728847,290.91162226875,96.68630835466143,282.8378742879375,102.37098982203442,276.91785098516874C108.05567128940739,270.9978276824,113.74035275678035,267.231529057675,119.43282145904014,265.0418679858833C125.12529016129992,262.85220691409165,130.8255460984465,262.23918339523334,136.5180148007063,259.82804846964774C142.21048350296607,257.4169135440621,147.89516497033904,253.20766721174917,153.57984643771204,251.40090806374488C159.26452790508503,249.59414891574065,164.949209372458,250.189876952045,170.63389083983097,251.66152401586191C176.31857230720394,253.13317107967873,182.00325377457693,255.48073717100814,187.69572247683672,256.2817593107603C193.38819117909648,257.0827814505125,199.0884471162431,256.3372596386875,204.78091581850288,256.53444949172393C210.47338452076266,256.7316393447604,216.15806598813563,257.8715408626583,221.8427474555086,260.5447223054054C227.52742892288157,263.2179037481525,233.21211039025457,267.42436511574874,238.8967918576275,270.7612051206759C244.5814733250005,274.09804512560316,250.26615479237344,276.56526376786127,255.95829902651295,277.2706903805329C261.6504432606525,277.9761169932046,267.3500502615585,276.9197515762898,273.042194495698,277.61368402688373C278.73433872983753,278.3076164774777,284.4190201972105,280.75184679558043,290.10370166458347,281.6026855868309C295.78838313195644,282.4535243780813,301.4730645993294,281.71097164247936,307.1577460667024,283.40625309480157C312.84242753407534,285.1015345471238,318.5271090014483,289.23465018737005,324.2195777037081,292.81681069512916C329.91204640596794,296.39897120288833,335.61230234311455,299.4301765781604,341.30509551349456,304.6585220753509C346.99788868387463,309.88686757254146,352.6832190874882,317.3123531916504,358.36822502298145,320.8900875168833C364.0532309584748,324.46782184211605,369.7379124258477,324.19780487347276,375.42259389322066,323.6797629204333C381.10727536059363,323.1617209673938,386.79195682796654,322.39565402995817,392.4844255302264,320.6014817685228C398.1768942324862,318.8073095070875,403.8771501696328,315.98503192165253,409.56961887189254,316.41357880862074C415.2620875741524,316.842125695589,420.94676904152533,320.52149705496043,426.6314505088983,323.9939488546858C432.31613197627127,327.46640065441125,438.0008134436442,330.7319328944906,443.6854949110172,331.40605329995003C449.37017637839017,332.0801737054095,455.05485784576314,330.16288227624904,460.74732654802284,327.2677708053207C466.4397952502827,324.3726593343924,472.14005118742926,320.49972782169624,477.8325198896891,315.48739485069865C483.5249885919489,310.47506187970106,489.2096700593218,304.32332745040213,494.89435152669483,299.1264300545935C500.5790329940678,293.92953265878504,506.26371446144077,289.68747229646686,511.9483959288137,286.87725604950737C517.6330773961868,284.06703980254787,523.3177588635598,282.6886676709469,529.0102275658195,281.63113997465274C534.7026962680793,280.57361227835855,540.4029522052259,279.8369290173711,546.0954209074856,278.412140666174C551.7878896097454,276.9873523149768,557.4725710771185,274.87445887356995,563.1572525444914,271.47359142103727C568.8419340118644,268.07272396850453,574.5266154792374,263.3838825048459,580.21097247849,259.40058779241207C585.8953294777427,255.41729307997812,591.5793620088751,252.139545118769,597.2715062430146,247.50666553680648C602.9636504771541,242.87378595484392,608.6639064143008,236.88577475212801,614.3566995846808,233.83451543108686C620.0494927550609,230.78325611004573,625.7348231586744,230.66874867067938,631.4198290941677,230.4851911007788C637.104835029661,230.30163353087815,642.789516497034,230.04902583044336,648.4741979644069,229.57500420864025C654.1588794317798,229.10098258683715,659.8435608991527,228.40554704366573,665.5360296014126,227.8563015936652C671.2284983036724,227.30705614366465,676.928754240819,226.9040007868349,682.6212229430788,226.06923945512423C688.3136916453386,225.2344781234135,693.9983731127114,223.96801081682187,699.6830545800844,224.18527660092226C705.3677360474575,224.40254238502268,711.0524175148306,226.10354125981516,716.7370989822035,228.01062901559587C722.4217804495765,229.91771677137652,728.1064619169493,232.03089340814543,733.7989306192093,234.47373291792061C739.491399321469,236.91657242769574,745.1916552586157,239.6890748104771,750.8841239608754,242.0377665232478C756.5765926631351,244.38645823601846,762.261274130508,246.3113392787784,767.945955597881,248.6646421326368C773.6306370652541,251.0179449864952,779.315318532627,253.79966965145204,782.1576592663135,255.19053198393047L785,256.5813943164089L785,261.14238735508L782.1576592663135,259.7949212433923C779.315318532627,258.44745513170454,773.6306370652541,255.7525229083291,767.945955597881,253.3516002836769C762.261274130508,250.9506776590246,756.5765926631351,248.84376463309547,750.8841239608754,246.42444908076322C745.1916552586157,244.0051335284309,739.491399321469,241.27341544969542,733.7989306192093,238.87343676397572C728.1064619169493,236.47345807825602,722.4217804495765,234.40521878555205,716.7370989822035,232.52592686551475C711.0524175148306,230.64663494547744,705.3677360474575,228.95629039810674,699.6830545800844,228.8056803876051C693.9983731127114,228.65507037710344,688.3136916453386,230.0441949034708,682.6212229430788,230.97690202309596C676.928754240819,231.90960914272114,671.2284983036724,232.3858988556041,665.5360296014126,233.10069469175662C659.8435608991527,233.8154905279091,654.1588794317798,234.76879248733113,648.4741979644069,235.4700656170397C642.789516497034,236.17133874674832,637.104835029661,236.62058304674346,631.4198290941677,237.05351214731277C625.7348231586744,237.4864412478821,620.0494927550609,237.90305514902562,614.3566995846808,240.54870351063917C608.6639064143008,243.1943518722527,602.9636504771541,248.06903469433624,597.2715062430146,252.96401414577966C591.5793620088751,257.8589935972231,585.8953294777427,262.7742696780264,580.21097247849,267.50899010799975C574.5266154792374,272.2437105379731,568.8419340118644,276.7978753171163,563.1572525444914,280.6935999833906C557.4725710771185,284.5893246496648,551.7878896097454,287.8266092030699,546.0954209074856,289.8787998499803C540.4029522052259,291.9309904968907,534.7026962680793,292.7980872373063,529.0102275658195,293.2667479146719C523.3177588635598,293.7354085920375,517.6330773961868,293.80563320635315,511.9483959288137,295.60272730133437C506.26371446144077,297.39982139631564,500.5790329940678,300.9237849719625,494.89435152669483,305.9152423161866C489.2096700593218,310.9066996604108,483.5249885919489,317.3656507732123,477.8325198896891,322.3695467806879C472.14005118742926,327.37344278816363,466.4397952502827,330.92228369031363,460.74732654802295,334.05088577794174C455.05485784576314,337.17948786556985,449.37017637839017,339.8878511386761,443.6854949110172,340.15147114221253C438.0008134436442,340.41509114574893,432.31613197627127,338.2339678797154,426.6314505088983,334.6074759582942C420.94676904152533,330.98098403687294,415.2620875741524,325.90912346006394,409.56961887189254,324.45900138999986C403.8771501696328,323.00887931993583,398.1768942324862,325.18049575661666,392.4844255302264,326.61178886147906C386.79195682796654,328.0430819663415,381.10727536059363,328.73405173938545,375.42259389322066,329.2866994943666C369.7379124258477,329.8393472493477,364.0532309584748,330.25367298626605,358.36822502298145,326.6953248897978C352.6832190874882,323.13697679332955,346.99788868387463,315.6059548634748,341.30509551349456,310.10031629168844C335.61230234311455,304.5946777199021,329.91204640596794,301.11442250618416,324.2195777037081,297.14625685338956C318.5271090014483,293.178091200595,312.84242753407534,288.7220151087237,307.1577460667024,287.15121801287245C301.4730645993294,285.58042091702106,295.78838313195644,286.8949028171896,290.10370166458347,286.08433542531833C284.4190201972105,285.2737680334471,278.73433872983753,282.3381513495361,273.042194495698,280.80866763166296C267.3500502615585,279.27918391378984,261.6504432606525,279.1558331619546,255.95829902651295,277.86054846490794C250.26615479237344,276.56526376786127,244.5814733250005,274.09804512560316,238.8967918576275,270.7612051206759C233.21211039025457,267.42436511574874,227.52742892288157,263.2179037481525,221.84274745550863,260.5447223054054C216.15806598813563,257.8715408626583,210.47338452076266,256.7316393447604,204.78091581850288,256.534449491724C199.0884471162431,256.3372596386875,193.38819117909648,257.0827814505125,187.69572247683672,256.2817593107603C182.00325377457693,255.48073717100814,176.31857230720394,253.13317107967873,170.63389083983097,251.6615240158619C164.949209372458,250.189876952045,159.26452790508503,249.59414891574065,153.57984643771204,251.40090806374488C147.89516497033904,253.20766721174917,142.21048350296607,257.4169135440621,136.5180148007063,259.82804846964774C130.8255460984465,262.23918339523334,125.12529016129992,262.85220691409165,119.43282145904014,265.0418679858833C113.74035275678035,267.231529057675,108.05567128940739,270.9978276824,102.3709898220344,276.91785098516874C96.68630835466143,282.8378742879375,91.00162688728847,290.91162226875,85.31694541991548,293.17506117375C79.63226395254252,295.43850007875,73.94758248516952,291.8916299079375,68.25511378290975,287.0551867913683C62.56264508064995,282.2187436747992,56.86238914350336,276.0927276124733,51.16992044124357,271.8546938866989C45.47745173898378,267.61666016092437,39.79277027161081,265.2666087717012,34.108088804237845,264.1621745208177C28.42340733686487,263.0577402699342,22.738725869491898,263.1989231573902,17.054044402118922,263.52312278103C11.369362934745949,263.8473224046698,5.684681467372974,264.3545387644934,2.842340733686487,264.6081469444052L0,264.8617551243169Z"><title>Other</title></path><path fill="#d62728" d="M0,264.8617551243169L2.842340733686487,264.6081469444052C5.684681467372974,264.3545387644934,11.369362934745949,263.8473224046698,17.054044402118922,263.52312278103C22.738725869491898,263.1989231573902,28.42340733686487,263.0577402699342,34.108088804237845,264.1621745208177C39.79277027161081,265.2666087717012,45.47745173898378,267.61666016092437,51.16992044124357,271.8546938866989C56.86238914350336,276.0927276124733,62.56264508064995,282.2187436747992,68.25511378290975,287.0551867913683C73.94758248516952,291.8916299079375,79.63226395254252,295.43850007875,85.31694541991548,293.17506117375C91.00162688728847,290.91162226875,96.68630835466143,282.8378742879375,102.37098982203442,276.91785098516874C108.05567128940739,270.9978276824,113.74035275678035,267.231529057675,119.43282145904014,265.0418679858833C125.12529016129992,262.85220691409165,130.8255460984465,262.23918339523334,136.5180148007063,259.82804846964774C142.21048350296607,257.4169135440621,147.89516497033904,253.20766721174917,153.57984643771204,251.40090806374488C159.26452790508503,249.59414891574065,164.949209372458,250.189876952045,170.63389083983097,251.66152401586191C176.31857230720394,253.13317107967873,182.00325377457693,255.48073717100814,187.69572247683672,256.2817593107603C193.38819117909648,257.0827814505125,199.0884471162431,256.3372596386875,204.78091581850288,256.53444949172393C210.47338452076266,256.7316393447604,216.15806598813563,257.8715408626583,221.8427474555086,260.5447223054054C227.52742892288157,263.2179037481525,233.21211039025457,267.42436511574874,238.8967918576275,270.5945384540093C244.5814733250005,273.7647117922698,250.26615479237344,275.8985971011946,255.95829902651295,277.1938817982412C261.6504432606525,278.4891664952879,267.3500502615585,278.94585058045647,273.042194495698,280.64200096499627C278.73433872983753,282.3381513495361,284.4190201972105,285.2737680334471,290.10370166458347,286.6851802268548C295.78838313195644,288.09659242026254,301.4730645993294,287.9838001231669,307.1577460667024,290.0822184358212C312.84242753407534,292.1806367484754,318.5271090014483,296.4902656708796,324.2195777037081,300.2953248020381C329.91204640596794,304.10038393319667,335.61230234311455,307.4008732731096,341.30509551349456,312.8235469055105C346.99788868387463,318.2462205379115,352.6832190874882,325.79107846280044,358.36822502298145,329.37696394365224C364.0532309584748,332.962849424504,369.7379124258477,332.58976246131857,375.42259389322066,332.0996650263957C381.10727536059363,331.60956759147297,386.79195682796654,331.0024596848127,392.4844255302264,329.54464446042925C398.1768942324862,328.08682923604584,403.8771501696328,325.77830669393916,409.56961887189254,327.1200289182022C415.2620875741524,328.46175114246523,420.94676904152533,333.45371813309794,426.6314505088983,337.03524702909397C432.31613197627127,340.61677592509,438.0008134436442,342.7878667264493,443.6854949110172,342.49086436656586C449.37017637839017,342.1938620066824,455.05485784576314,339.42876648555614,460.74732654802284,336.28347758182343C466.4397952502827,333.1381886780907,472.14005118742926,329.61270639175154,477.8325198896891,325.4758295110517C483.5249885919489,321.3389526303518,489.2096700593218,316.5906811552912,494.89435152669483,312.24329623870705C500.5790329940678,307.8959113221229,506.26371446144077,303.9494129640152,511.9483959288137,302.41328811957834C517.6330773961868,300.87716327514147,523.3177588635598,301.75141194437543,529.0102275658195,300.42824180280337C534.7026962680793,299.1050716612313,540.4029522052259,295.58448270885316,546.0954209074856,292.20554595596155C551.7878896097454,288.8266092030699,557.4725710771185,285.5893246496648,563.1572525444914,281.6935999833906C568.8419340118644,277.7978753171163,574.5266154792374,273.2437105379731,580.21097247849,266.5491884362272C585.8953294777427,259.85466633448146,591.5793620088751,251.01978691013315,597.2715062430146,246.1248074586898C602.9636504771541,241.2298280072463,608.6639064143008,240.27474852870773,614.3566995846808,236.82791971728116C620.0494927550609,233.38109090585462,625.7348231586744,227.4425127615401,631.4198290941677,223.84697234858206C637.104835029661,220.25143193562403,642.789516497034,218.99892925402253,648.4741979644069,217.01543217368817C654.1588794317798,215.03193509335378,659.8435608991527,212.31744361428653,665.5360296014126,209.65227539340685C671.2284983036724,206.9871071725271,676.928754240819,204.37126220983487,682.6212229430788,196.56103468658011C688.3136916453386,188.75080716332528,693.9983731127114,175.74619707950794,699.6830545800844,162.2307976228428C705.3677360474575,148.71539816617766,711.0524175148306,134.6892093366648,716.7370989822035,126.64199527555637C722.4217804495765,118.59478121444795,728.1064619169493,116.526541921744,733.7989306192093,114.1265632360243C739.491399321469,111.7265845503046,745.1916552586157,108.9948664715691,750.8841239608754,106.57555091923682C756.5765926631351,104.15623536690453,762.261274130508,102.04932234097542,767.945955597881,99.64839971632314C773.6306370652541,97.24747709167087,779.315318532627,94.55254486829544,782.1576592663135,93.2050787566077L785,91.85761264491998L785,223.22335492375754L782.1576592663135,221.27090496013275C779.315318532627,219.31845499650797,773.6306370652541,215.41355506925842,767.945955597881,210.5672196088565C762.261274130508,205.7208841484546,756.5765926631351,199.93311315490033,750.8841239608754,194.22114916858928C745.1916552586157,188.50918518227823,739.491399321469,182.8730282032104,733.7989306192093,176.86019103621553C728.1064619169493,170.84735386922065,722.4217804495765,164.45783651429875,716.7370989822035,166.93464840274842C711.0524175148306,169.4114602911981,705.3677360474575,180.75460142301935,699.6830545800844,191.99337246812408C693.9983731127114,203.2321435132288,688.3136916453386,214.36654447161698,682.6212229430788,220.13527262922594C676.928754240819,225.9040007868349,671.2284983036724,226.30705614366465,665.5360296014126,226.8563015936652C659.8435608991527,227.40554704366573,654.1588794317798,228.10098258683715,648.4741979644069,228.57500420864025C642.789516497034,229.04902583044336,637.104835029661,229.30163353087815,631.4198290941677,232.1240952692862C625.7348231586744,234.94655700769422,620.0494927550609,240.33887278407545,614.3566995846808,243.39013210511658C608.6639064143008,246.44139142615776,602.9636504771541,247.1515942918588,597.2715062430146,251.8041191777016C591.5793620088751,256.4566440635444,585.8953294777427,265.05149096952897,580.21097247849,271.5512640918206C574.5266154792374,278.0510372141122,568.8419340118644,282.4557365527109,563.1572525444914,286.0757400885247C557.4725710771185,289.69574362433855,551.7878896097454,292.5310513573674,546.0954209074856,295.1817403862894C540.4029522052259,297.8324294152114,534.7026962680793,300.2984997400265,529.0102275658195,301.0712589926117C523.3177588635598,301.8440182451969,517.6330773961868,300.9234664255522,511.9483959288137,302.4364396947837C506.26371446144077,303.9494129640152,500.5790329940678,307.8959113221229,494.89435152669483,312.24329623870705C489.2096700593218,316.5906811552912,483.5249885919489,321.3389526303518,477.8325198896891,325.4758295110517C472.14005118742926,329.61270639175154,466.4397952502827,333.1381886780907,460.74732654802295,336.28347758182343C455.05485784576314,339.42876648555614,449.37017637839017,342.1938620066824,443.6854949110172,342.49086436656586C438.0008134436442,342.7878667264493,432.31613197627127,340.61677592509,426.6314505088983,337.03524702909397C420.94676904152533,333.45371813309794,415.2620875741524,328.46175114246523,409.56961887189254,327.1200289182022C403.8771501696328,325.77830669393916,398.1768942324862,328.08682923604584,392.4844255302264,329.54464446042925C386.79195682796654,331.0024596848127,381.10727536059363,331.60956759147297,375.42259389322066,332.0996650263957C369.7379124258477,332.58976246131857,364.0532309584748,332.962849424504,358.36822502298145,329.37696394365224C352.6832190874882,325.79107846280044,346.99788868387463,318.2462205379115,341.30509551349456,312.8235469055105C335.61230234311455,307.4008732731096,329.91204640596794,304.10038393319667,324.2195777037081,300.2953248020381C318.5271090014483,296.4902656708796,312.84242753407534,292.1806367484754,307.1577460667024,290.0822184358212C301.4730645993294,287.9838001231669,295.78838313195644,288.09659242026254,290.10370166458347,286.6851802268548C284.4190201972105,285.2737680334471,278.73433872983753,282.3381513495361,273.042194495698,280.64200096499627C267.3500502615585,278.94585058045647,261.6504432606525,278.4891664952879,255.95829902651295,277.1938817982413C250.26615479237344,275.8985971011946,244.5814733250005,273.7647117922698,238.8967918576275,270.5945384540093C233.21211039025457,267.42436511574874,227.52742892288157,263.2179037481525,221.84274745550863,260.5447223054054C216.15806598813563,257.8715408626583,210.47338452076266,256.7316393447604,204.78091581850288,256.534449491724C199.0884471162431,256.3372596386875,193.38819117909648,257.0827814505125,187.69572247683672,256.2817593107603C182.00325377457693,255.48073717100814,176.31857230720394,253.13317107967873,170.63389083983097,251.6615240158619C164.949209372458,250.189876952045,159.26452790508503,249.59414891574065,153.57984643771204,251.40090806374488C147.89516497033904,253.20766721174917,142.21048350296607,257.4169135440621,136.5180148007063,259.82804846964774C130.8255460984465,262.23918339523334,125.12529016129992,262.85220691409165,119.43282145904014,265.0418679858833C113.74035275678035,267.231529057675,108.05567128940739,270.9978276824,102.3709898220344,276.91785098516874C96.68630835466143,282.8378742879375,91.00162688728847,290.91162226875,85.31694541991548,293.17506117375C79.63226395254252,295.43850007875,73.94758248516952,291.8916299079375,68.25511378290975,287.0551867913683C62.56264508064995,282.2187436747992,56.86238914350336,276.0927276124733,51.16992044124357,271.8546938866989C45.47745173898378,267.61666016092437,39.79277027161081,265.2666087717012,34.108088804237845,264.1621745208177C28.42340733686487,263.0577402699342,22.738725869491898,263.1989231573902,17.054044402118922,263.52312278103C11.369362934745949,263.8473224046698,5.684681467372974,264.3545387644934,2.842340733686487,264.6081469444052L0,264.8617551243169Z"><title>Streaming</title></path><path fill="#8c564b" d="M0,91.13824487568316L2.842340733686487,91.39185305559492C5.684681467372974,91.64546123550669,11.369362934745949,92.15267759533022,17.054044402118922,92.47687721897002C22.738725869491898,92.80107684260982,28.42340733686487,92.94225973006587,34.108088804237845,91.83782547918234C39.79277027161081,90.73339122829879,45.47745173898378,88.38333983907565,51.16992044124357,84.14530611330116C56.86238914350336,79.90727238752667,62.56264508064995,73.78125632520084,68.25511378290975,68.94481320863167C73.94758248516952,64.10837009206251,79.63226395254252,60.561499921250025,85.31694541991548,62.82493882625002C91.00162688728847,65.08837773125002,96.68630835466143,73.1621257120625,102.37098982203442,79.08214901483124C108.05567128940739,85.0021723176,113.74035275678035,88.768470942325,119.43282145904014,90.95813201411666C125.12529016129992,93.14779308590833,130.8255460984465,93.76081660476666,136.5180148007063,95.83861819701895C142.21048350296607,97.91641978927125,147.89516497033904,101.45899945491749,153.57984643771204,103.09909193625509C159.26452790508503,104.7391844175927,164.949209372458,104.47678971462166,170.63389083983097,117.88086970240896C176.31857230720394,131.28494969019624,182.00325377457693,158.35550436874186,187.69572247683672,171.92605630830215C193.38819117909648,185.49660824786247,199.0884471162431,185.56715744843748,204.78091581850288,185.28217125973435C210.47338452076266,184.99718507103125,216.15806598813563,184.35666349304998,221.8427474555086,193.12956691306167C227.52742892288157,201.90247033307332,233.21211039025457,220.0887987510779,238.8967918576275,231.99028939018635C244.5814733250005,243.89178002929478,250.26615479237344,249.50843288950708,255.95829902651295,253.8854603092433C261.6504432606525,258.2624877289796,267.3500502615585,261.39988970823975,273.042194495698,265.0344655123983C278.73433872983753,268.66904131655684,284.4190201972105,272.80079094561376,290.10370166458347,276.25556550050584C295.78838313195644,279.7103400553979,301.4730645993294,282.4881395361252,307.1577460667024,286.10507732242445C312.84242753407534,289.7220151087237,318.5271090014483,294.178091200595,324.2195777037081,298.14625685338956C329.91204640596794,302.11442250618416,335.61230234311455,305.5946777199021,341.30509551349456,311.10031629168844C346.99788868387463,316.6059548634748,352.6832190874882,324.13697679332955,358.36822502298145,327.6953248897978C364.0532309584748,331.25367298626605,369.7379124258477,330.8393472493477,375.42259389322066,330.2866994943666C381.10727536059363,329.73405173938545,386.79195682796654,329.0430819663415,392.4844255302264,327.61178886147906C398.1768942324862,326.18049575661666,403.8771501696328,324.00887931993583,409.56961887189254,325.45900138999986C415.2620875741524,326.90912346006394,420.94676904152533,331.98098403687294,426.6314505088983,335.6074759582942C432.31613197627127,339.2339678797154,438.0008134436442,341.41509114574893,443.6854949110172,341.15147114221253C449.37017637839017,340.8878511386761,455.05485784576314,338.17948786556985,460.74732654802284,335.05088577794174C466.4397952502827,331.92228369031363,472.14005118742926,328.37344278816363,477.8325198896891,324.27537221538586C483.5249885919489,320.1773016426081,489.2096700593218,315.5300013992025,494.89435152669483,311.0775778052387C500.5790329940678,306.625154211275,506.26371446144077,302.36760726675317,511.9483959288137,300.44705209226004C517.6330773961868,298.5264969177669,523.3177588635598,298.94293351330253,529.0102275658195,298.65231664133006C534.7026962680793,298.36169976935753,540.4029522052259,297.3640294298769,546.0954209074856,295.4475403936222C551.7878896097454,293.5310513573674,557.4725710771185,290.69574362433855,563.1572525444914,287.07574008852475C568.8419340118644,283.4557365527109,574.5266154792374,279.0510372141122,580.21097247849,273.39825081829724C585.8953294777427,267.74546442248226,591.5793620088751,260.844590969451,597.2715062430146,256.1920660836082C602.9636504771541,251.5395411977654,608.6639064143008,249.13536487911105,614.3566995846808,246.4897165174975C620.0494927550609,243.84406815588397,625.7348231586744,240.95694775131128,631.4198290941677,239.28876539902737C637.104835029661,237.62058304674346,642.789516497034,237.17133874674832,648.4741979644069,236.4700656170397C654.1588794317798,235.76879248733113,659.8435608991527,234.8154905279091,665.5360296014126,234.10069469175662C671.2284983036724,233.3858988556041,676.928754240819,232.90960914272114,682.6212229430788,231.97690202309596C688.3136916453386,231.0441949034708,693.9983731127114,229.65507037710344,699.6830545800844,227.81005251903989C705.3677360474575,225.96503466097633,711.0524175148306,223.66412347121653,716.7370989822035,223.52562462680862C722.4217804495765,223.38712578240074,728.1064619169493,225.4110392833447,733.7989306192093,227.7404613763879C739.491399321469,230.06988346943112,745.1916552586157,232.70481415457357,750.8841239608754,234.9335137520674C756.5765926631351,237.16221334956126,762.261274130508,238.98468185940646,767.945955597881,241.10783595735623C773.6306370652541,243.23099005530602,779.315318532627,245.65482974136037,782.1576592663135,246.86674958438758L785,248.07866942741475L785,255.58139431640888L782.1576592663135,254.19053198393047C779.315318532627,252.79966965145204,773.6306370652541,250.0179449864952,767.945955597881,247.6646421326368C762.261274130508,245.3113392787784,756.5765926631351,243.38645823601846,750.8841239608754,241.0377665232478C745.1916552586157,238.6890748104771,739.491399321469,235.91657242769574,733.7989306192093,233.47373291792056C728.1064619169493,231.03089340814543,722.4217804495765,228.91771677137652,716.7370989822035,228.772273841088C711.0524175148306,228.6268309107995,705.3677360474575,230.44912168699133,699.6830545800844,231.96872346008422C693.9983731127114,233.48832523317716,688.3136916453386,234.7052380031711,682.6212229430788,235.42715247176412C676.928754240819,236.14906694035722,671.2284983036724,236.3759831075494,665.5360296014126,236.8587049911513C659.8435608991527,237.34142687475324,654.1588794317798,238.07995447476492,648.4741979644069,238.58953057283406C642.789516497034,239.0991066709032,637.104835029661,239.3797312670298,631.4198290941677,240.89438875458487C625.7348231586744,242.40904624214002,620.0494927550609,245.1577366211237,614.3566995846808,247.71374940883402C608.6639064143008,250.26976219654435,602.9636504771541,252.63309739298143,597.2715062430146,257.1719955094854C591.5793620088751,261.7108936259894,585.8953294777427,268.4253546625602,580.21097247849,273.98317315731396C574.5266154792374,279.5409916520677,568.8419340118644,283.9421676050043,563.1572525444914,287.568847350766C557.4725710771185,291.1955270965277,551.7878896097454,294.0477106351145,546.0954209074856,296.01524284984635C540.4029522052259,297.9827750645782,534.7026962680793,299.06565595545504,529.0102275658195,299.41615936082275C523.3177588635598,299.76666276619045,517.6330773961868,299.384788686049,511.9483959288137,301.3337674916988C506.26371446144077,303.2827462973485,500.5790329940678,307.5625779887896,494.89435152669483,312.0766295720404C489.2096700593218,316.5906811552912,483.5249885919489,321.3389526303518,477.8325198896891,325.4758295110517C472.14005118742926,329.61270639175154,466.4397952502827,333.1381886780907,460.74732654802295,336.28347758182343C455.05485784576314,339.42876648555614,449.37017637839017,342.1938620066824,443.6854949110172,342.49086436656586C438.0008134436442,342.7878667264493,432.31613197627127,340.61677592509,426.6314505088983,337.03524702909397C420.94676904152533,333.45371813309794,415.2620875741524,328.46175114246523,409.56961887189254,327.1200289182022C403.8771501696328,325.77830669393916,398.1768942324862,328.08682923604584,392.4844255302264,329.54464446042925C386.79195682796654,331.0024596848127,381.10727536059363,331.60956759147297,375.42259389322066,332.0996650263957C369.7379124258477,332.58976246131857,364.0532309584748,332.962849424504,358.36822502298145,329.37696394365224C352.6832190874882,325.79107846280044,346.99788868387463,318.2462205379115,341.30509551349456,312.8235469055105C335.61230234311455,307.4008732731096,329.91204640596794,304.10038393319667,324.2195777037081,300.2953248020381C318.5271090014483,296.4902656708796,312.84242753407534,292.1806367484754,307.1577460667024,289.0800005018753C301.4730645993294,285.97936425527524,295.78838313195644,284.08772068447917,290.10370166458347,281.9197837400298C284.4190201972105,279.75184679558043,278.73433872983753,277.3076164774777,273.042194495698,276.61368402688373C267.3500502615585,275.9197515762898,261.6504432606525,276.9761169932046,255.95829902651295,276.4373570471996C250.26615479237344,275.8985971011946,244.5814733250005,273.7647117922698,238.8967918576275,265.0491076236968C233.21211039025457,256.3335034551238,227.52742892288157,241.03618042690252,221.84274745550863,235.90198795199083C216.15806598813563,230.76779547707918,210.47338452076266,235.79673355547706,204.78091581850288,240.34815170550726C199.0884471162431,244.8995698555375,193.38819117909648,248.97346807719998,187.69572247683672,238.6667943102209C182.00325377457693,228.36012054324183,176.31857230720394,203.67287478762125,170.63389083983097,193.50147640296106C164.949209372458,183.33007801830084,159.26452790508503,187.67452700460103,153.57984643771204,191.6882735343197C147.89516497033904,195.70202006403835,142.21048350296607,199.38506413717542,136.5180148007063,201.64962963889187C130.8255460984465,203.91419514060837,125.12529016129992,204.76028207090417,119.43282145904014,205.50005569706045C113.74035275678035,206.2398293232167,108.05567128940739,206.87328964523337,102.3709898220344,208.68162357206458C96.68630835466143,210.48995749889582,91.00162688728847,213.47316503054165,85.31694541991548,215.68666862252084C79.63226395254252,217.9001722145,73.94758248516952,219.3439718668125,68.25511378290975,218.86135894825668C62.56264508064995,218.37874602970086,56.86238914350336,215.96972054027665,51.16992044124357,214.67208531750944C45.47745173898378,213.3744500947423,39.79277027161081,213.18820513863207,34.108088804237845,212.9653593383906C28.42340733686487,212.74251353814918,22.738725869491898,212.48306689377645,17.054044402118922,212.67155183894917C11.369362934745949,212.8600367841219,5.684681467372974,213.49645331883997,2.842340733686487,213.81466158619904L0,214.1328698535581Z"><title>Vinyl</title></path></g><g id="xAxis" transform="translate(0,357)" fill="none" font-size="10" font-family="sans-serif" text-anchor="middle"><path class="domain" stroke="currentColor" d="M0,0H785"/><g class="tick" opacity="1" transform="translate(34.108088804237845,0)"><line stroke="currentColor" y2="6"/><text fill="currentColor" y="9" dy="0.71em">1975</text></g><g class="tick" opacity="1" transform="translate(119.42503422415332,0)"><line stroke="currentColor" y2="6"/><text fill="currentColor" y="9" dy="0.71em">1980</text></g><g class="tick" opacity="1" transform="translate(204.7887030533897,0)"><line stroke="currentColor" y2="6"/><text fill="currentColor" y="9" dy="0.71em">1985</text></g><g class="tick" opacity="1" transform="translate(290.10370166458347,0)"><line stroke="currentColor" y2="6"/><text fill="currentColor" y="9" dy="0.71em">1990</text></g><g class="tick" opacity="1" transform="translate(375.42259389322066,0)"><line stroke="currentColor" y2="6"/><text fill="currentColor" y="9" dy="0.71em">1995</text></g><g class="tick" opacity="1" transform="translate(460.7395393131361,0)"><line stroke="currentColor" y2="6"/><text fill="currentColor" y="9" dy="0.71em">2000</text></g><g class="tick" opacity="1" transform="translate(546.1032081423724,0)"><line stroke="currentColor" y2="6"/><text fill="currentColor" y="9" dy="0.71em">2005</text></g><g class="tick" opacity="1" transform="translate(631.420153562288,0)"><line stroke="currentColor" y2="6"/><text fill="currentColor" y="9" dy="0.71em">2010</text></g><g class="tick" opacity="1" transform="translate(716.7370989822035,0)"><line stroke="currentColor" y2="6"/><text fill="currentColor" y="9" dy="0.71em">2015</text></g></g><text y="353" x="785" text-anchor="end" style="font-family: Arial, sans-serif; font-size: 12px; fill: rgb(123, 123, 123); font-weight: bold;">Year</text><text x="4" text-anchor="start" dominant-baseline="hanging" style="font-family: Arial, sans-serif; font-size: 12px; fill: rgb(123, 123, 123); font-weight: bold;">Revenues in millions (Adjusted for inflation)</text><g id="labels"><text x="255.95083625974644" y="130.29759217021186" text-anchor="middle" alignment-baseline="middle" style="font-family: Arial, sans-serif; font-size: 10px; fill: black; font-weight: bold;">Tape</text><text x="443.6854949110172" y="157.855101696135" text-anchor="middle" alignment-baseline="middle" style="font-family: Arial, sans-serif; font-size: 10px; fill: black; font-weight: bold;">Disc</text><text x="665.5282423665258" y="141.37686348354967" text-anchor="middle" alignment-baseline="middle" style="font-family: Arial, sans-serif; font-size: 10px; fill: black; font-weight: bold;">Download</text><text x="529.0024403309327" y="287.4877397585339" text-anchor="middle" alignment-baseline="middle" style="font-family: Arial, sans-serif; font-size: 10px; fill: black; font-weight: bold;">Other</text><text x="785" y="157.54048378433876" text-anchor="end" alignment-baseline="middle" style="font-family: Arial, sans-serif; font-size: 10px; fill: black; font-weight: bold;">Streaming</text><text x="85.31694541991548" y="136.7355011563125" text-anchor="middle" alignment-baseline="middle" style="font-family: Arial, sans-serif; font-size: 10px; fill: black; font-weight: bold;">Vinyl</text></g></g><text x="4" y="4" style="font-family: Arial, sans-serif; font-size: 12px; fill: black; font-weight: bold; dominant-baseline: hanging;"/></g></g></svg>