<svg xmlns="http://www.w3.org/2000/svg" width="805" height="600"><rect width="805" height="600" x="0" y="0" fill="#FFFFFF" id="background"/><g id="viz"><g transform="translate(0,0)"><g transform="translate(10,20)"><g><path fill="#9467bd" d="M0,373.13763324940004C8.527022201059461,373.13763324940004,8.527022201059461,371.4354249588625,17.054044402118922,371.4354249588625C25.581066603178385,371.4354249588625,25.581066603178385,371.83892993248503,34.108088804237845,371.83892993248503C42.635111005297304,371.83892993248503,42.635111005297304,374.08313419078905,51.162133206356756,374.08313419078905C59.712517112076654,374.08313419078905,59.712517112076654,383.8105443153452,68.26290101779655,383.8105443153452C76.78992321885602,383.8105443153452,76.78992321885602,383.21156301475804,85.31694541991548,383.21156301475804C93.84396762097495,383.21156301475804,93.84396762097495,372.1193332661185,102.37098982203442,372.1193332661185C110.89801202309387,372.1193332661185,110.89801202309387,368.32905525844313,119.42503422415332,368.32905525844313C127.97541812987322,368.32905525844313,127.97541812987322,366.24238249205234,136.5258020355931,366.24238249205234C145.05282423665255,366.24238249205234,145.05282423665255,357.7899639321829,153.57984643771204,357.7899639321829C162.10686863877152,357.7899639321829,162.10686863877152,349.75828747082346,170.63389083983097,349.75828747082346C179.16091304089042,349.75828747082346,179.16091304089042,342.85400718480184,187.6879352419499,342.85400718480184C196.2383191476698,342.85400718480184,196.2383191476698,346.01944090141666,204.7887030533897,346.01944090141666C213.31572525444915,346.01944090141666,213.31572525444915,352.1544714270357,221.8427474555086,352.1544714270357C230.36976965656805,352.1544714270357,230.36976965656805,355.6329589996359,238.89679185762753,355.6329589996359C247.423814058687,355.6329589996359,247.423814058687,356.08586316268793,255.95083625974644,356.08586316268793C264.5002467611055,356.08586316268793,264.5002467611055,360.9234384321588,273.04965726246456,360.9234384321588C281.576679463524,360.9234384321588,281.576679463524,368.81098730459144,290.10370166458347,368.81098730459144C298.63072386564295,368.81098730459144,298.63072386564295,382.55132924373146,307.1577460667024,382.55132924373146C315.68476826776185,382.55132924373146,315.68476826776185,392.3448396982245,324.21179046882133,392.3448396982245C332.76217437454125,392.3448396982245,332.76217437454125,406.9151366058298,341.3125582802611,406.9151366058298C349.8405538856814,406.9151366058298,349.8405538856814,430.52119107403996,358.36854949110176,430.52119107403996C366.8955716921612,430.52119107403996,366.8955716921612,443.25202360023076,375.42259389322066,443.25202360023076C383.94961609428015,443.25202360023076,383.94961609428015,449.5752205818873,392.47663829533957,449.5752205818873C401.0270222010595,449.5752205818873,401.0270222010595,448.3411616480995,409.5774061067794,448.3411616480995C418.1044283078388,448.3411616480995,418.1044283078388,467.489158138302,426.6314505088983,467.489158138302C435.1584727099578,467.489158138302,435.1584727099578,484.79795198499585,443.6854949110172,484.79795198499585C452.2125171120766,484.79795198499585,452.2125171120766,483.3498879565698,460.7395393131361,483.3498879565698C469.289923218856,483.3498879565698,469.289923218856,472.65147997038673,477.84030712457593,472.65147997038673C486.3673293256354,472.65147997038673,486.3673293256354,456.43565085732644,494.89435152669483,456.43565085732644C503.42137372775426,456.43565085732644,503.42137372775426,441.5919450021921,511.94839592881374,441.5919450021921C520.4754181298732,441.5919450021921,520.4754181298732,440.34633916504265,529.0024403309327,440.34633916504265C537.5528242366526,440.34633916504265,537.5528242366526,422.5671318949776,546.1032081423724,422.5671318949776C554.630230343432,422.5671318949776,554.630230343432,401.93733440217835,563.1572525444915,401.93733440217835C571.684274745551,401.93733440217835,571.684274745551,370.21673445229396,580.2112969466103,370.21673445229396C588.7373457433089,370.21673445229396,588.7373457433089,333.7144493388594,597.2633945400075,333.7144493388594C605.8137784457274,333.7144493388594,605.8137784457274,314.4367856742889,614.3641623514474,314.4367856742889C622.8921579568677,314.4367856742889,622.8921579568677,296.5381640964932,631.420153562288,296.5381640964932C639.9471757633474,296.5381640964932,639.9471757633474,290.67407591729585,648.4741979644069,290.67407591729585C657.0012201654663,290.67407591729585,657.0012201654663,279.34358815311634,665.5282423665258,279.34358815311634C674.0786262722456,279.34358815311634,674.0786262722456,271.8642346673108,682.6290101779656,271.8642346673108C691.156032379025,271.8642346673108,691.156032379025,260.69648861427885,699.6830545800844,260.69648861427885C708.2100767811439,260.69648861427885,708.2100767811439,253.4545697455996,716.7370989822035,253.4545697455996C725.2641211832629,253.4545697455996,725.2641211832629,249.667534110119,733.7911433843224,249.667534110119C742.3415272900422,249.667534110119,742.3415272900422,251.98077390294702,750.8919111957622,251.98077390294702C759.4189333968216,251.98077390294702,759.4189333968216,251.15886555989718,767.945955597881,251.15886555989718C776.4729777989405,251.15886555989718,776.4729777989405,257.1382212863491,785,257.1382212863491L785,257.1382212863491C776.4729777989405,257.1382212863491,776.4729777989405,251.15886555989718,767.945955597881,251.15886555989718C759.4189333968216,251.15886555989718,759.4189333968216,251.98077390294702,750.8919111957622,251.98077390294702C742.3415272900422,251.98077390294702,742.3415272900422,249.667534110119,733.7911433843224,249.667534110119C725.2641211832629,249.667534110119,725.2641211832629,253.4545697455996,716.7370989822035,253.4545697455996C708.2100767811439,253.4545697455996,708.2100767811439,260.69648861427885,699.6830545800844,260.69648861427885C691.156032379025,260.69648861427885,691.156032379025,271.8642346673108,682.6290101779656,271.8642346673108C674.0786262722456,271.8642346673108,674.0786262722456,279.34358815311634,665.5282423665258,279.34358815311634C657.0012201654663,279.34358815311634,657.0012201654663,290.67407591729585,648.4741979644069,290.67407591729585C639.9471757633474,290.67407591729585,639.9471757633474,296.5381640964932,631.420153562288,296.5381640964932C622.8921579568677,296.5381640964932,622.8921579568677,314.4367856742889,614.3641623514474,314.4367856742889C605.8137784457274,314.4367856742889,605.8137784457274,333.7358230586794,597.2633945400075,333.7358230586794C588.7373457433089,333.7358230586794,588.7373457433089,370.2907306896339,580.2112969466103,370.2907306896339C571.684274745551,370.2907306896339,571.684274745551,402.03117675337836,563.1572525444915,402.03117675337836C554.630230343432,402.03117675337836,554.630230343432,422.91010237117763,546.1032081423724,422.91010237117763C537.5528242366526,422.91010237117763,537.5528242366526,440.9878501126426,529.0024403309327,440.9878501126426C520.4754181298732,440.9878501126426,520.4754181298732,444.59591475219213,511.94839592881374,444.59591475219213C503.42137372775426,444.59591475219213,503.42137372775426,462.3986123473264,494.89435152669483,462.3986123473264C486.3673293256354,462.3986123473264,486.3673293256354,483.1433776323867,477.84030712457593,483.1433776323867C469.289923218856,483.1433776323867,469.289923218856,502.07431353082984,460.7395393131361,502.07431353082984C452.2125171120766,502.07431353082984,452.2125171120766,518.8528147943958,443.6854949110172,518.8528147943958C435.1584727099578,518.8528147943958,435.1584727099578,514.991169804302,426.6314505088983,514.991169804302C418.1044283078388,514.991169804302,418.1044283078388,501.1036692360995,409.5774061067794,501.1036692360995C401.0270222010595,501.1036692360995,401.0270222010595,517.8351507598873,392.47663829533957,517.8351507598873C383.94961609428015,517.8351507598873,383.94961609428015,528.4676685242308,375.42259389322066,528.4676685242308C366.8955716921612,528.4676685242308,366.8955716921612,542.6963063360399,358.36854949110176,542.6963063360399C349.8405538856814,542.6963063360399,349.8405538856814,520.6533089398297,341.3125582802611,520.6533089398297C332.76217437454125,520.6533089398297,332.76217437454125,516.8058832702245,324.21179046882133,516.8058832702245C315.68476826776185,516.8058832702245,315.68476826776185,504.56091073573145,307.1577460667024,504.56091073573145C298.63072386564295,504.56091073573145,298.63072386564295,514.7447756865913,290.10370166458347,514.7447756865913C281.576679463524,514.7447756865913,281.576679463524,506.91183243215875,273.04965726246456,506.91183243215875C264.5002467611055,506.91183243215875,264.5002467611055,504.87261833668794,255.95083625974644,504.87261833668794C247.423814058687,504.87261833668794,247.423814058687,489.49280372323585,238.89679185762753,489.49280372323585C230.36976965656805,489.49280372323585,230.36976965656805,468.76298812703567,221.8427474555086,468.76298812703567C213.31572525444915,468.76298812703567,213.31572525444915,460.6136519614166,204.7887030533897,460.6136519614166C196.2383191476698,460.6136519614166,196.2383191476698,460.1707968448018,187.6879352419499,460.1707968448018C179.16091304089042,460.1707968448018,179.16091304089042,442.72400259082355,170.63389083983097,442.72400259082355C162.10686863877152,442.72400259082355,162.10686863877152,433.05644445458285,153.57984643771204,433.05644445458285C145.05282423665255,433.05644445458285,145.05282423665255,443.6313595220523,136.5258020355931,443.6313595220523C127.97541812987322,443.6313595220523,127.97541812987322,444.7779445784431,119.42503422415332,444.7779445784431C110.89801202309387,444.7779445784431,110.89801202309387,461.20488128611845,102.37098982203442,461.20488128611845C93.84396762097495,461.20488128611845,93.84396762097495,492.83038343475806,85.31694541991548,492.83038343475806C76.78992321885602,492.83038343475806,76.78992321885602,473.29893183534523,68.26290101779655,473.29893183534523C59.712517112076654,473.29893183534523,59.712517112076654,448.578618559589,51.162133206356756,448.578618559589C42.635111005297304,448.578618559589,42.635111005297304,437.60645557948504,34.108088804237845,437.60645557948504C25.581066603178385,437.60645557948504,25.581066603178385,438.81893527206256,17.054044402118922,438.81893527206256C8.527022201059461,438.81893527206256,8.527022201059461,440,0,440Z"><title>Tape</title></path><path fill="#1f77b4" d="M0,373.13763324940004C8.527022201059461,373.13763324940004,8.527022201059461,371.4354249588625,17.054044402118922,371.4354249588625C25.581066603178385,371.4354249588625,25.581066603178385,371.83892993248503,34.108088804237845,371.83892993248503C42.635111005297304,371.83892993248503,42.635111005297304,374.08313419078905,51.162133206356756,374.08313419078905C59.712517112076654,374.08313419078905,59.712517112076654,383.8105443153452,68.26290101779655,383.8105443153452C76.78992321885602,383.8105443153452,76.78992321885602,383.21156301475804,85.31694541991548,383.21156301475804C93.84396762097495,383.21156301475804,93.84396762097495,372.1193332661185,102.37098982203442,372.1193332661185C110.89801202309387,372.1193332661185,110.89801202309387,368.32905525844313,119.42503422415332,368.32905525844313C127.97541812987322,368.32905525844313,127.97541812987322,366.24238249205234,136.5258020355931,366.24238249205234C145.05282423665255,366.24238249205234,145.05282423665255,357.7899639321829,153.57984643771204,357.7899639321829C162.10686863877152,357.7899639321829,162.10686863877152,348.87529542262354,170.63389083983097,348.87529542262354C179.16091304089042,348.87529542262354,179.16091304089042,337.7703944608019,187.6879352419499,337.7703944608019C196.2383191476698,337.7703944608019,196.2383191476698,327.5104443394166,204.7887030533897,327.5104443394166C213.31572525444915,327.5104443394166,213.31572525444915,308.7627605270357,221.8427474555086,308.7627605270357C230.36976965656805,308.7627605270357,230.36976965656805,283.90496687963594,238.89679185762753,283.90496687963594C247.423814058687,283.90496687963594,247.423814058687,265.33303089488794,255.95083625974644,265.33303089488794C264.5002467611055,265.33303089488794,264.5002467611055,254.21962893215877,273.04965726246456,254.21962893215877C281.576679463524,254.21962893215877,281.576679463524,233.54554840319136,290.10370166458347,233.54554840319136C298.63072386564295,233.54554840319136,298.63072386564295,218.39025294353144,307.1577460667024,218.39025294353144C315.68476826776185,218.39025294353144,315.68476826776185,196.58045749422456,324.21179046882133,196.58045749422456C332.76217437454125,196.58045749422456,332.76217437454125,174.88827422862977,341.3125582802611,174.88827422862977C349.8405538856814,174.88827422862977,349.8405538856814,136.5466926238399,358.36854949110176,136.5466926238399C366.8955716921612,136.5466926238399,366.8955716921612,124.91208747823076,375.42259389322066,124.91208747823076C383.94961609428015,124.91208747823076,383.94961609428015,119.81842622788727,392.47663829533957,119.81842622788727C401.0270222010595,119.81842622788727,401.0270222010595,123.78260908409955,409.5774061067794,123.78260908409955C418.1044283078388,123.78260908409955,418.1044283078388,102.69328269430201,426.6314505088983,102.69328269430201C435.1584727099578,102.69328269430201,435.1584727099578,84.62569188699581,443.6854949110172,84.62569188699581C452.2125171120766,84.62569188699581,452.2125171120766,86.7341295825698,460.7395393131361,86.7341295825698C469.289923218856,86.7341295825698,469.289923218856,97.64553505838673,477.84030712457593,97.64553505838673C486.3673293256354,97.64553505838673,486.3673293256354,113.55968083872642,494.89435152669483,113.55968083872642C503.42137372775426,113.55968083872642,503.42137372775426,127.7118420911921,511.94839592881374,127.7118420911921C520.4754181298732,127.7118420911921,520.4754181298732,129.65744423504262,529.0024403309327,129.65744423504262C537.5528242366526,129.65744423504262,537.5528242366526,146.5910947901776,546.1032081423724,146.5910947901776C554.630230343432,146.5910947901776,554.630230343432,163.88718847361835,563.1572525444915,163.88718847361835C571.684274745551,163.88718847361835,571.684274745551,186.012967775694,580.2112969466103,186.012967775694C588.7373457433089,186.012967775694,588.7373457433089,203.6221161867794,597.2633945400075,203.6221161867794C605.8137784457274,203.6221161867794,605.8137784457274,211.37413773158892,614.3641623514474,211.37413773158892C622.8921579568677,211.37413773158892,622.8921579568677,216.95311639979317,631.420153562288,216.95311639979317C639.9471757633474,216.95311639979317,639.9471757633474,220.07769691051584,648.4741979644069,220.07769691051584C657.0012201654663,220.07769691051584,657.0012201654663,223.8863432544564,665.5282423665258,223.8863432544564C674.0786262722456,223.8863432544564,674.0786262722456,224.79838120915082,682.6290101779656,224.79838120915082C691.156032379025,224.79838120915082,691.156032379025,222.23759657341887,699.6830545800844,222.23759657341887C708.2100767811439,222.23759657341887,708.2100767811439,222.23356853449957,716.7370989822035,222.23356853449957C725.2641211832629,222.23356853449957,725.2641211832629,225.54626019083895,733.7911433843224,225.54626019083895C742.3415272900422,225.54626019083895,742.3415272900422,229.87669883404706,750.8919111957622,229.87669883404706C759.4189333968216,229.87669883404706,759.4189333968216,236.9173755949172,767.945955597881,236.9173755949172C776.4729777989405,236.9173755949172,776.4729777989405,244.83572606494914,785,244.83572606494914L785,257.1382212863491C776.4729777989405,257.1382212863491,776.4729777989405,251.15886555989718,767.945955597881,251.15886555989718C759.4189333968216,251.15886555989718,759.4189333968216,251.98077390294702,750.8919111957622,251.98077390294702C742.3415272900422,251.98077390294702,742.3415272900422,249.667534110119,733.7911433843224,249.667534110119C725.2641211832629,249.667534110119,725.2641211832629,253.4545697455996,716.7370989822035,253.4545697455996C708.2100767811439,253.4545697455996,708.2100767811439,260.69648861427885,699.6830545800844,260.69648861427885C691.156032379025,260.69648861427885,691.156032379025,271.8642346673108,682.6290101779656,271.8642346673108C674.0786262722456,271.8642346673108,674.0786262722456,279.34358815311634,665.5282423665258,279.34358815311634C657.0012201654663,279.34358815311634,657.0012201654663,290.67407591729585,648.4741979644069,290.67407591729585C639.9471757633474,290.67407591729585,639.9471757633474,296.5381640964932,631.420153562288,296.5381640964932C622.8921579568677,296.5381640964932,622.8921579568677,314.4367856742889,614.3641623514474,314.4367856742889C605.8137784457274,314.4367856742889,605.8137784457274,333.7144493388594,597.2633945400075,333.7144493388594C588.7373457433089,333.7144493388594,588.7373457433089,370.21673445229396,580.2112969466103,370.21673445229396C571.684274745551,370.21673445229396,571.684274745551,401.93733440217835,563.1572525444915,401.93733440217835C554.630230343432,401.93733440217835,554.630230343432,422.5671318949776,546.1032081423724,422.5671318949776C537.5528242366526,422.5671318949776,537.5528242366526,440.34633916504265,529.0024403309327,440.34633916504265C520.4754181298732,440.34633916504265,520.4754181298732,441.5919450021921,511.94839592881374,441.5919450021921C503.42137372775426,441.5919450021921,503.42137372775426,456.43565085732644,494.89435152669483,456.43565085732644C486.3673293256354,456.43565085732644,486.3673293256354,472.65147997038673,477.84030712457593,472.65147997038673C469.289923218856,472.65147997038673,469.289923218856,483.3498879565698,460.7395393131361,483.3498879565698C452.2125171120766,483.3498879565698,452.2125171120766,484.79795198499585,443.6854949110172,484.79795198499585C435.1584727099578,484.79795198499585,435.1584727099578,467.489158138302,426.6314505088983,467.489158138302C418.1044283078388,467.489158138302,418.1044283078388,448.3411616480995,409.5774061067794,448.3411616480995C401.0270222010595,448.3411616480995,401.0270222010595,449.5752205818873,392.47663829533957,449.5752205818873C383.94961609428015,449.5752205818873,383.94961609428015,443.25202360023076,375.42259389322066,443.25202360023076C366.8955716921612,443.25202360023076,366.8955716921612,430.52119107403996,358.36854949110176,430.52119107403996C349.8405538856814,430.52119107403996,349.8405538856814,406.9151366058298,341.3125582802611,406.9151366058298C332.76217437454125,406.9151366058298,332.76217437454125,392.3448396982245,324.21179046882133,392.3448396982245C315.68476826776185,392.3448396982245,315.68476826776185,382.55132924373146,307.1577460667024,382.55132924373146C298.63072386564295,382.55132924373146,298.63072386564295,368.81098730459144,290.10370166458347,368.81098730459144C281.576679463524,368.81098730459144,281.576679463524,360.9234384321588,273.04965726246456,360.9234384321588C264.5002467611055,360.9234384321588,264.5002467611055,356.08586316268793,255.95083625974644,356.08586316268793C247.423814058687,356.08586316268793,247.423814058687,355.6329589996359,238.89679185762753,355.6329589996359C230.36976965656805,355.6329589996359,230.36976965656805,352.1544714270357,221.8427474555086,352.1544714270357C213.31572525444915,352.1544714270357,213.31572525444915,346.01944090141666,204.7887030533897,346.01944090141666C196.2383191476698,346.01944090141666,196.2383191476698,342.85400718480184,187.6879352419499,342.85400718480184C179.16091304089042,342.85400718480184,179.16091304089042,349.75828747082346,170.63389083983097,349.75828747082346C162.10686863877152,349.75828747082346,162.10686863877152,357.7899639321829,153.57984643771204,357.7899639321829C145.05282423665255,357.7899639321829,145.05282423665255,366.24238249205234,136.5258020355931,366.24238249205234C127.97541812987322,366.24238249205234,127.97541812987322,368.32905525844313,119.42503422415332,368.32905525844313C110.89801202309387,368.32905525844313,110.89801202309387,372.1193332661185,102.37098982203442,372.1193332661185C93.84396762097495,372.1193332661185,93.84396762097495,383.21156301475804,85.31694541991548,383.21156301475804C76.78992321885602,383.21156301475804,76.78992321885602,383.8105443153452,68.26290101779655,383.8105443153452C59.712517112076654,383.8105443153452,59.712517112076654,374.08313419078905,51.162133206356756,374.08313419078905C42.635111005297304,374.08313419078905,42.635111005297304,371.83892993248503,34.108088804237845,371.83892993248503C25.581066603178385,371.83892993248503,25.581066603178385,371.4354249588625,17.054044402118922,371.4354249588625C8.527022201059461,371.4354249588625,8.527022201059461,373.13763324940004,0,373.13763324940004Z"><title>Disc</title></path><path fill="#ff7f0e" d="M0,373.13763324940004C8.527022201059461,373.13763324940004,8.527022201059461,371.4354249588625,17.054044402118922,371.4354249588625C25.581066603178385,371.4354249588625,25.581066603178385,371.83892993248503,34.108088804237845,371.83892993248503C42.635111005297304,371.83892993248503,42.635111005297304,374.08313419078905,51.162133206356756,374.08313419078905C59.712517112076654,374.08313419078905,59.712517112076654,383.8105443153452,68.26290101779655,383.8105443153452C76.78992321885602,383.8105443153452,76.78992321885602,383.21156301475804,85.31694541991548,383.21156301475804C93.84396762097495,383.21156301475804,93.84396762097495,372.1193332661185,102.37098982203442,372.1193332661185C110.89801202309387,372.1193332661185,110.89801202309387,368.32905525844313,119.42503422415332,368.32905525844313C127.97541812987322,368.32905525844313,127.97541812987322,366.24238249205234,136.5258020355931,366.24238249205234C145.05282423665255,366.24238249205234,145.05282423665255,357.7899639321829,153.57984643771204,357.7899639321829C162.10686863877152,357.7899639321829,162.10686863877152,348.87529542262354,170.63389083983097,348.87529542262354C179.16091304089042,348.87529542262354,179.16091304089042,337.7703944608019,187.6879352419499,337.7703944608019C196.2383191476698,337.7703944608019,196.2383191476698,327.5104443394166,204.7887030533897,327.5104443394166C213.31572525444915,327.5104443394166,213.31572525444915,308.7627605270357,221.8427474555086,308.7627605270357C230.36976965656805,308.7627605270357,230.36976965656805,283.90496687963594,238.89679185762753,283.90496687963594C247.423814058687,283.90496687963594,247.423814058687,265.33303089488794,255.95083625974644,265.33303089488794C264.5002467611055,265.33303089488794,264.5002467611055,254.21962893215877,273.04965726246456,254.21962893215877C281.576679463524,254.21962893215877,281.576679463524,233.54554840319136,290.10370166458347,233.54554840319136C298.63072386564295,233.54554840319136,298.63072386564295,218.39025294353144,307.1577460667024,218.39025294353144C315.68476826776185,218.39025294353144,315.68476826776185,196.58045749422456,324.21179046882133,196.58045749422456C332.76217437454125,196.58045749422456,332.76217437454125,174.88827422862977,341.3125582802611,174.88827422862977C349.8405538856814,174.88827422862977,349.8405538856814,136.5466926238399,358.36854949110176,136.5466926238399C366.8955716921612,136.5466926238399,366.8955716921612,124.91208747823076,375.42259389322066,124.91208747823076C383.94961609428015,124.91208747823076,383.94961609428015,119.81842622788727,392.47663829533957,119.81842622788727C401.0270222010595,119.81842622788727,401.0270222010595,123.78260908409955,409.5774061067794,123.78260908409955C418.1044283078388,123.78260908409955,418.1044283078388,102.69328269430201,426.6314505088983,102.69328269430201C435.1584727099578,102.69328269430201,435.1584727099578,84.62569188699581,443.6854949110172,84.62569188699581C452.2125171120766,84.62569188699581,452.2125171120766,86.7341295825698,460.7395393131361,86.7341295825698C469.289923218856,86.7341295825698,469.289923218856,97.64553505838673,477.84030712457593,97.64553505838673C486.3673293256354,97.64553505838673,486.3673293256354,113.55968083872642,494.89435152669483,113.55968083872642C503.42137372775426,113.55968083872642,503.42137372775426,127.7118420911921,511.94839592881374,127.7118420911921C520.4754181298732,127.7118420911921,520.4754181298732,124.69047128564253,529.0024403309327,124.69047128564253C537.5528242366526,124.69047128564253,537.5528242366526,122.39204050437755,546.1032081423724,122.39204050437755C554.630230343432,122.39204050437755,554.630230343432,122.03857240041837,563.1572525444915,122.03857240041837C571.684274745551,122.03857240041837,571.684274745551,127.00343503469396,580.2112969466103,127.00343503469396C588.7373457433089,127.00343503469396,588.7373457433089,139.83581165237933,597.2633945400075,139.83581165237933C605.8137784457274,139.83581165237933,605.8137784457274,147.97736980938893,614.3641623514474,147.97736980938893C622.8921579568677,147.97736980938893,622.8921579568677,153.79626092959307,631.420153562288,153.79626092959307C639.9471757633474,153.79626092959307,639.9471757633474,154.11621555131583,648.4741979644069,154.11621555131583C657.0012201654663,154.11621555131583,657.0012201654663,156.71387197165635,665.5282423665258,156.71387197165635C674.0786262722456,156.71387197165635,674.0786262722456,160.7011180013508,682.6290101779656,160.7011180013508C691.156032379025,160.7011180013508,691.156032379025,167.09406788921885,699.6830545800844,167.09406788921885C708.2100767811439,167.09406788921885,708.2100767811439,172.38580588397957,716.7370989822035,172.38580588397957C725.2641211832629,172.38580588397957,725.2641211832629,186.20792865109897,733.7911433843224,186.20792865109897C742.3415272900422,186.20792865109897,742.3415272900422,200.62695517572703,750.8919111957622,200.62695517572703C759.4189333968216,200.62695517572703,759.4189333968216,215.7995442459572,767.945955597881,215.7995442459572C776.4729777989405,215.7995442459572,776.4729777989405,227.75292447470918,785,227.75292447470918L785,244.83572606494914C776.4729777989405,244.83572606494914,776.4729777989405,236.9173755949172,767.945955597881,236.9173755949172C759.4189333968216,236.9173755949172,759.4189333968216,229.87669883404706,750.8919111957622,229.87669883404706C742.3415272900422,229.87669883404706,742.3415272900422,225.54626019083895,733.7911433843224,225.54626019083895C725.2641211832629,225.54626019083895,725.2641211832629,222.23356853449957,716.7370989822035,222.23356853449957C708.2100767811439,222.23356853449957,708.2100767811439,222.23759657341887,699.6830545800844,222.23759657341887C691.156032379025,222.23759657341887,691.156032379025,224.79838120915082,682.6290101779656,224.79838120915082C674.0786262722456,224.79838120915082,674.0786262722456,223.8863432544564,665.5282423665258,223.8863432544564C657.0012201654663,223.8863432544564,657.0012201654663,220.07769691051584,648.4741979644069,220.07769691051584C639.9471757633474,220.07769691051584,639.9471757633474,216.95311639979317,631.420153562288,216.95311639979317C622.8921579568677,216.95311639979317,622.8921579568677,211.37413773158892,614.3641623514474,211.37413773158892C605.8137784457274,211.37413773158892,605.8137784457274,203.6221161867794,597.2633945400075,203.6221161867794C588.7373457433089,203.6221161867794,588.7373457433089,186.012967775694,580.2112969466103,186.012967775694C571.684274745551,186.012967775694,571.684274745551,163.88718847361835,563.1572525444915,163.88718847361835C554.630230343432,163.88718847361835,554.630230343432,146.5910947901776,546.1032081423724,146.5910947901776C537.5528242366526,146.5910947901776,537.5528242366526,129.65744423504262,529.0024403309327,129.65744423504262C520.4754181298732,129.65744423504262,520.4754181298732,127.7118420911921,511.94839592881374,127.7118420911921C503.42137372775426,127.7118420911921,503.42137372775426,113.55968083872642,494.89435152669483,113.55968083872642C486.3673293256354,113.55968083872642,486.3673293256354,97.64553505838673,477.84030712457593,97.64553505838673C469.289923218856,97.64553505838673,469.289923218856,86.7341295825698,460.7395393131361,86.7341295825698C452.2125171120766,86.7341295825698,452.2125171120766,84.62569188699581,443.6854949110172,84.62569188699581C435.1584727099578,84.62569188699581,435.1584727099578,102.69328269430201,426.6314505088983,102.69328269430201C418.1044283078388,102.69328269430201,418.1044283078388,123.78260908409955,409.5774061067794,123.78260908409955C401.0270222010595,123.78260908409955,401.0270222010595,119.81842622788727,392.47663829533957,119.81842622788727C383.94961609428015,119.81842622788727,383.94961609428015,124.91208747823076,375.42259389322066,124.91208747823076C366.8955716921612,124.91208747823076,366.8955716921612,136.5466926238399,358.36854949110176,136.5466926238399C349.8405538856814,136.5466926238399,349.8405538856814,174.88827422862977,341.3125582802611,174.88827422862977C332.76217437454125,174.88827422862977,332.76217437454125,196.58045749422456,324.21179046882133,196.58045749422456C315.68476826776185,196.58045749422456,315.68476826776185,218.39025294353144,307.1577460667024,218.39025294353144C298.63072386564295,218.39025294353144,298.63072386564295,233.54554840319136,290.10370166458347,233.54554840319136C281.576679463524,233.54554840319136,281.576679463524,254.21962893215877,273.04965726246456,254.21962893215877C264.5002467611055,254.21962893215877,264.5002467611055,265.33303089488794,255.95083625974644,265.33303089488794C247.423814058687,265.33303089488794,247.423814058687,283.90496687963594,238.89679185762753,283.90496687963594C230.36976965656805,283.90496687963594,230.36976965656805,308.7627605270357,221.8427474555086,308.7627605270357C213.31572525444915,308.7627605270357,213.31572525444915,327.5104443394166,204.7887030533897,327.5104443394166C196.2383191476698,327.5104443394166,196.2383191476698,337.7703944608019,187.6879352419499,337.7703944608019C179.16091304089042,337.7703944608019,179.16091304089042,348.87529542262354,170.63389083983097,348.87529542262354C162.10686863877152,348.87529542262354,162.10686863877152,357.7899639321829,153.57984643771204,357.7899639321829C145.05282423665255,357.7899639321829,145.05282423665255,366.24238249205234,136.5258020355931,366.24238249205234C127.97541812987322,366.24238249205234,127.97541812987322,368.32905525844313,119.42503422415332,368.32905525844313C110.89801202309387,368.32905525844313,110.89801202309387,372.1193332661185,102.37098982203442,372.1193332661185C93.84396762097495,372.1193332661185,93.84396762097495,383.21156301475804,85.31694541991548,383.21156301475804C76.78992321885602,383.21156301475804,76.78992321885602,383.8105443153452,68.26290101779655,383.8105443153452C59.712517112076654,383.8105443153452,59.712517112076654,374.08313419078905,51.162133206356756,374.08313419078905C42.635111005297304,374.08313419078905,42.635111005297304,371.83892993248503,34.108088804237845,371.83892993248503C25.581066603178385,371.83892993248503,25.581066603178385,371.4354249588625,17.054044402118922,371.4354249588625C8.527022201059461,371.4354249588625,8.527022201059461,373.13763324940004,0,373.13763324940004Z"><title>Download</title></path><path fill="#2ca02c" d="M0,373.13763324940004C8.527022201059461,373.13763324940004,8.527022201059461,371.4354249588625,17.054044402118922,371.4354249588625C25.581066603178385,371.4354249588625,25.581066603178385,371.83892993248503,34.108088804237845,371.83892993248503C42.635111005297304,371.83892993248503,42.635111005297304,374.08313419078905,51.162133206356756,374.08313419078905C59.712517112076654,374.08313419078905,59.712517112076654,383.8105443153452,68.26290101779655,383.8105443153452C76.78992321885602,383.8105443153452,76.78992321885602,383.21156301475804,85.31694541991548,383.21156301475804C93.84396762097495,383.21156301475804,93.84396762097495,372.1193332661185,102.37098982203442,372.1193332661185C110.89801202309387,372.1193332661185,110.89801202309387,368.32905525844313,119.42503422415332,368.32905525844313C127.97541812987322,368.32905525844313,127.97541812987322,366.24238249205234,136.5258020355931,366.24238249205234C145.05282423665255,366.24238249205234,145.05282423665255,357.7899639321829,153.57984643771204,357.7899639321829C162.10686863877152,357.7899639321829,162.10686863877152,348.87529542262354,170.63389083983097,348.87529542262354C179.16091304089042,348.87529542262354,179.16091304089042,337.7703944608019,187.6879352419499,337.7703944608019C196.2383191476698,337.7703944608019,196.2383191476698,327.5104443394166,204.7887030533897,327.5104443394166C213.31572525444915,327.5104443394166,213.31572525444915,308.7627605270357,221.8427474555086,308.7627605270357C230.36976965656805,308.7627605270357,230.36976965656805,283.90496687963594,238.89679185762753,283.90496687963594C247.423814058687,283.90496687963594,247.423814058687,265.33303089488794,255.95083625974644,265.33303089488794C264.5002467611055,265.33303089488794,264.5002467611055,249.46110993215873,273.04965726246456,249.46110993215873C281.576679463524,249.46110993215873,281.576679463524,226.8049667511914,290.10370166458347,226.8049667511914C298.63072386564295,226.8049667511914,298.63072386564295,213.95661245953144,307.1577460667024,213.95661245953144C315.68476826776185,213.95661245953144,315.68476826776185,190.84411939022453,324.21179046882133,190.84411939022453C332.76217437454125,190.84411939022453,332.76217437454125,167.34064265862972,341.3125582802611,167.34064265862972C349.8405538856814,167.34064265862972,349.8405538856814,128.57336837183988,358.36854949110176,128.57336837183988C366.8955716921612,128.57336837183988,366.8955716921612,117.52084901423075,375.42259389322066,117.52084901423075C383.94961609428015,117.52084901423075,383.94961609428015,112.12427483188729,392.47663829533957,112.12427483188729C401.0270222010595,112.12427483188729,401.0270222010595,113.46394213009945,409.5774061067794,113.46394213009945C418.1044283078388,113.46394213009945,418.1044283078388,86.75785251030207,426.6314505088983,86.75785251030207C435.1584727099578,86.75785251030207,435.1584727099578,73.06434832099585,443.6854949110172,73.06434832099585C452.2125171120766,73.06434832099585,452.2125171120766,78.3636640425698,460.7395393131361,78.3636640425698C469.289923218856,78.3636640425698,469.289923218856,87.96781327416679,477.84030712457593,87.96781327416679C486.3673293256354,87.96781327416679,486.3673293256354,105.12115239972641,494.89435152669483,105.12115239972641C503.42137372775426,105.12115239972641,503.42137372775426,116.37678879839206,511.94839592881374,116.37678879839206C520.4754181298732,116.37678879839206,520.4754181298732,108.07885657858255,529.0024403309327,108.07885657858255C537.5528242366526,108.07885657858255,537.5528242366526,106.3064633613976,546.1032081423724,106.3064633613976C554.630230343432,106.3064633613976,554.630230343432,110.48835436465835,563.1572525444915,110.48835436465835C571.684274745551,110.48835436465835,571.684274745551,114.90998331349395,580.2112969466103,114.90998331349395C588.7373457433089,114.90998331349395,588.7373457433089,134.3475153715594,597.2633945400075,134.3475153715594C605.8137784457274,134.3475153715594,605.8137784457274,137.9983372033289,614.3641623514474,137.9983372033289C622.8921579568677,137.9983372033289,622.8921579568677,145.0358090096932,631.420153562288,145.0358090096932C639.9471757633474,145.0358090096932,639.9471757633474,146.1489196632558,648.4741979644069,146.1489196632558C657.0012201654663,146.1489196632558,657.0012201654663,149.78670952729635,665.5282423665258,149.78670952729635C674.0786262722456,149.78670952729635,674.0786262722456,154.06935464023087,682.6290101779656,154.06935464023087C691.156032379025,154.06935464023087,691.156032379025,160.95705633895884,699.6830545800844,160.95705633895884C708.2100767811439,160.95705633895884,708.2100767811439,166.29176977205958,716.7370989822035,166.29176977205958C725.2641211832629,166.29176977205958,725.2641211832629,180.29515241439898,733.7911433843224,180.29515241439898C742.3415272900422,180.29515241439898,742.3415272900422,194.87868705618703,750.8919111957622,194.87868705618703C759.4189333968216,194.87868705618703,759.4189333968216,209.31702947161713,767.945955597881,209.31702947161713C776.4729777989405,209.31702947161713,776.4729777989405,221.62049685968918,785,221.62049685968918L785,227.75292447470918C776.4729777989405,227.75292447470918,776.4729777989405,215.7995442459572,767.945955597881,215.7995442459572C759.4189333968216,215.7995442459572,759.4189333968216,200.62695517572703,750.8919111957622,200.62695517572703C742.3415272900422,200.62695517572703,742.3415272900422,186.20792865109897,733.7911433843224,186.20792865109897C725.2641211832629,186.20792865109897,725.2641211832629,172.38580588397957,716.7370989822035,172.38580588397957C708.2100767811439,172.38580588397957,708.2100767811439,167.09406788921885,699.6830545800844,167.09406788921885C691.156032379025,167.09406788921885,691.156032379025,160.7011180013508,682.6290101779656,160.7011180013508C674.0786262722456,160.7011180013508,674.0786262722456,156.71387197165635,665.5282423665258,156.71387197165635C657.0012201654663,156.71387197165635,657.0012201654663,154.11621555131583,648.4741979644069,154.11621555131583C639.9471757633474,154.11621555131583,639.9471757633474,153.79626092959307,631.420153562288,153.79626092959307C622.8921579568677,153.79626092959307,622.8921579568677,147.97736980938893,614.3641623514474,147.97736980938893C605.8137784457274,147.97736980938893,605.8137784457274,139.83581165237933,597.2633945400075,139.83581165237933C588.7373457433089,139.83581165237933,588.7373457433089,127.00343503469396,580.2112969466103,127.00343503469396C571.684274745551,127.00343503469396,571.684274745551,122.03857240041837,563.1572525444915,122.03857240041837C554.630230343432,122.03857240041837,554.630230343432,122.39204050437755,546.1032081423724,122.39204050437755C537.5528242366526,122.39204050437755,537.5528242366526,124.69047128564253,529.0024403309327,124.69047128564253C520.4754181298732,124.69047128564253,520.4754181298732,127.7118420911921,511.94839592881374,127.7118420911921C503.42137372775426,127.7118420911921,503.42137372775426,113.55968083872642,494.89435152669483,113.55968083872642C486.3673293256354,113.55968083872642,486.3673293256354,97.64553505838673,477.84030712457593,97.64553505838673C469.289923218856,97.64553505838673,469.289923218856,86.7341295825698,460.7395393131361,86.7341295825698C452.2125171120766,86.7341295825698,452.2125171120766,84.62569188699581,443.6854949110172,84.62569188699581C435.1584727099578,84.62569188699581,435.1584727099578,102.69328269430201,426.6314505088983,102.69328269430201C418.1044283078388,102.69328269430201,418.1044283078388,123.78260908409955,409.5774061067794,123.78260908409955C401.0270222010595,123.78260908409955,401.0270222010595,119.81842622788727,392.47663829533957,119.81842622788727C383.94961609428015,119.81842622788727,383.94961609428015,124.91208747823076,375.42259389322066,124.91208747823076C366.8955716921612,124.91208747823076,366.8955716921612,136.5466926238399,358.36854949110176,136.5466926238399C349.8405538856814,136.5466926238399,349.8405538856814,174.88827422862977,341.3125582802611,174.88827422862977C332.76217437454125,174.88827422862977,332.76217437454125,196.58045749422456,324.21179046882133,196.58045749422456C315.68476826776185,196.58045749422456,315.68476826776185,218.39025294353144,307.1577460667024,218.39025294353144C298.63072386564295,218.39025294353144,298.63072386564295,233.54554840319136,290.10370166458347,233.54554840319136C281.576679463524,233.54554840319136,281.576679463524,254.21962893215877,273.04965726246456,254.21962893215877C264.5002467611055,254.21962893215877,264.5002467611055,265.33303089488794,255.95083625974644,265.33303089488794C247.423814058687,265.33303089488794,247.423814058687,283.90496687963594,238.89679185762753,283.90496687963594C230.36976965656805,283.90496687963594,230.36976965656805,308.7627605270357,221.8427474555086,308.7627605270357C213.31572525444915,308.7627605270357,213.31572525444915,327.5104443394166,204.7887030533897,327.5104443394166C196.2383191476698,327.5104443394166,196.2383191476698,337.7703944608019,187.6879352419499,337.7703944608019C179.16091304089042,337.7703944608019,179.16091304089042,348.87529542262354,170.63389083983097,348.87529542262354C162.10686863877152,348.87529542262354,162.10686863877152,357.7899639321829,153.57984643771204,357.7899639321829C145.05282423665255,357.7899639321829,145.05282423665255,366.24238249205234,136.5258020355931,366.24238249205234C127.97541812987322,366.24238249205234,127.97541812987322,368.32905525844313,119.42503422415332,368.32905525844313C110.89801202309387,368.32905525844313,110.89801202309387,372.1193332661185,102.37098982203442,372.1193332661185C93.84396762097495,372.1193332661185,93.84396762097495,383.21156301475804,85.31694541991548,383.21156301475804C76.78992321885602,383.21156301475804,76.78992321885602,383.8105443153452,68.26290101779655,383.8105443153452C59.712517112076654,383.8105443153452,59.712517112076654,374.08313419078905,51.162133206356756,374.08313419078905C42.635111005297304,374.08313419078905,42.635111005297304,371.83892993248503,34.108088804237845,371.83892993248503C25.581066603178385,371.83892993248503,25.581066603178385,371.4354249588625,17.054044402118922,371.4354249588625C8.527022201059461,371.4354249588625,8.527022201059461,373.13763324940004,0,373.13763324940004Z"><title>Other</title></path><path fill="#d62728" d="M0,373.13763324940004C8.527022201059461,373.13763324940004,8.527022201059461,371.4354249588625,17.054044402118922,371.4354249588625C25.581066603178385,371.4354249588625,25.581066603178385,371.83892993248503,34.108088804237845,371.83892993248503C42.635111005297304,371.83892993248503,42.635111005297304,374.08313419078905,51.162133206356756,374.08313419078905C59.712517112076654,374.08313419078905,59.712517112076654,383.8105443153452,68.26290101779655,383.8105443153452C76.78992321885602,383.8105443153452,76.78992321885602,383.21156301475804,85.31694541991548,383.21156301475804C93.84396762097495,383.21156301475804,93.84396762097495,372.1193332661185,102.37098982203442,372.1193332661185C110.89801202309387,372.1193332661185,110.89801202309387,368.32905525844313,119.42503422415332,368.32905525844313C127.97541812987322,368.32905525844313,127.97541812987322,366.24238249205234,136.5258020355931,366.24238249205234C145.05282423665255,366.24238249205234,145.05282423665255,357.7899639321829,153.57984643771204,357.7899639321829C162.10686863877152,357.7899639321829,162.10686863877152,348.87529542262354,170.63389083983097,348.87529542262354C179.16091304089042,348.87529542262354,179.16091304089042,337.7703944608019,187.6879352419499,337.7703944608019C196.2383191476698,337.7703944608019,196.2383191476698,327.5104443394166,204.7887030533897,327.5104443394166C213.31572525444915,327.5104443394166,213.31572525444915,308.7627605270357,221.8427474555086,308.7627605270357C230.36976965656805,308.7627605270357,230.36976965656805,283.90496687963594,238.89679185762753,283.90496687963594C247.423814058687,283.90496687963594,247.423814058687,265.33303089488794,255.95083625974644,265.33303089488794C264.5002467611055,265.33303089488794,264.5002467611055,249.46110993215873,273.04965726246456,249.46110993215873C281.576679463524,249.46110993215873,281.576679463524,226.8049667511914,290.10370166458347,226.8049667511914C298.63072386564295,226.8049667511914,298.63072386564295,213.95661245953144,307.1577460667024,213.95661245953144C315.68476826776185,213.95661245953144,315.68476826776185,190.84411939022453,324.21179046882133,190.84411939022453C332.76217437454125,190.84411939022453,332.76217437454125,167.34064265862972,341.3125582802611,167.34064265862972C349.8405538856814,167.34064265862972,349.8405538856814,128.57336837183988,358.36854949110176,128.57336837183988C366.8955716921612,128.57336837183988,366.8955716921612,117.52084901423075,375.42259389322066,117.52084901423075C383.94961609428015,117.52084901423075,383.94961609428015,112.12427483188729,392.47663829533957,112.12427483188729C401.0270222010595,112.12427483188729,401.0270222010595,113.46394213009945,409.5774061067794,113.46394213009945C418.1044283078388,113.46394213009945,418.1044283078388,86.75785251030207,426.6314505088983,86.75785251030207C435.1584727099578,86.75785251030207,435.1584727099578,73.06434832099585,443.6854949110172,73.06434832099585C452.2125171120766,73.06434832099585,452.2125171120766,78.3636640425698,460.7395393131361,78.3636640425698C469.289923218856,78.3636640425698,469.289923218856,87.96781327416679,477.84030712457593,87.96781327416679C486.3673293256354,87.96781327416679,486.3673293256354,105.12115239972641,494.89435152669483,105.12115239972641C503.42137372775426,105.12115239972641,503.42137372775426,116.37678879839206,511.94839592881374,116.37678879839206C520.4754181298732,116.37678879839206,520.4754181298732,107.89208756852258,529.0024403309327,107.89208756852258C537.5528242366526,107.89208756852258,537.5528242366526,101.86617383679759,546.1032081423724,101.86617383679759C554.630230343432,101.86617383679759,554.630230343432,104.42664573265834,563.1572525444915,104.42664573265834C571.684274745551,104.42664573265834,571.684274745551,108.24538887089395,580.2112969466103,108.24538887089395C588.7373457433089,108.24538887089395,588.7373457433089,126.71472253555943,597.2633945400075,126.71472253555943C605.8137784457274,126.71472253555943,605.8137784457274,129.3778067693289,614.3641623514474,129.3778067693289C622.8921579568677,129.3778067693289,622.8921579568677,134.21186734369317,631.420153562288,134.21186734369317C639.9471757633474,134.21186734369317,639.9471757633474,131.29178815725578,648.4741979644069,131.29178815725578C657.0012201654663,131.29178815725578,657.0012201654663,126.78548685129635,665.5282423665258,126.78548685129635C674.0786262722456,126.78548685129635,674.0786262722456,122.14259405823088,682.6290101779656,122.14259405823088C691.156032379025,122.14259405823088,691.156032379025,121.4865950829589,699.6830545800844,121.4865950829589C708.2100767811439,121.4865950829589,708.2100767811439,115.99893124805955,716.7370989822035,115.99893124805955C725.2641211832629,115.99893124805955,725.2641211832629,95.88699295879897,733.7911433843224,95.88699295879897C742.3415272900422,95.88699295879897,742.3415272900422,76.71775425818707,750.8919111957622,76.71775425818707C759.4189333968216,76.71775425818707,759.4189333968216,59.31199306561715,767.945955597881,59.31199306561715C776.4729777989405,59.31199306561715,776.4729777989405,44.9942887536891,785,44.9942887536891L785,221.62049685968918C776.4729777989405,221.62049685968918,776.4729777989405,209.31702947161713,767.945955597881,209.31702947161713C759.4189333968216,209.31702947161713,759.4189333968216,194.87868705618703,750.8919111957622,194.87868705618703C742.3415272900422,194.87868705618703,742.3415272900422,180.29515241439898,733.7911433843224,180.29515241439898C725.2641211832629,180.29515241439898,725.2641211832629,166.29176977205958,716.7370989822035,166.29176977205958C708.2100767811439,166.29176977205958,708.2100767811439,160.95705633895884,699.6830545800844,160.95705633895884C691.156032379025,160.95705633895884,691.156032379025,154.06935464023087,682.6290101779656,154.06935464023087C674.0786262722456,154.06935464023087,674.0786262722456,149.78670952729635,665.5282423665258,149.78670952729635C657.0012201654663,149.78670952729635,657.0012201654663,146.1489196632558,648.4741979644069,146.1489196632558C639.9471757633474,146.1489196632558,639.9471757633474,145.0358090096932,631.420153562288,145.0358090096932C622.8921579568677,145.0358090096932,622.8921579568677,137.9983372033289,614.3641623514474,137.9983372033289C605.8137784457274,137.9983372033289,605.8137784457274,134.3475153715594,597.2633945400075,134.3475153715594C588.7373457433089,134.3475153715594,588.7373457433089,114.90998331349395,580.2112969466103,114.90998331349395C571.684274745551,114.90998331349395,571.684274745551,110.48835436465835,563.1572525444915,110.48835436465835C554.630230343432,110.48835436465835,554.630230343432,106.3064633613976,546.1032081423724,106.3064633613976C537.5528242366526,106.3064633613976,537.5528242366526,108.07885657858255,529.0024403309327,108.07885657858255C520.4754181298732,108.07885657858255,520.4754181298732,116.37678879839206,511.94839592881374,116.37678879839206C503.42137372775426,116.37678879839206,503.42137372775426,105.12115239972641,494.89435152669483,105.12115239972641C486.3673293256354,105.12115239972641,486.3673293256354,87.96781327416679,477.84030712457593,87.96781327416679C469.289923218856,87.96781327416679,469.289923218856,78.3636640425698,460.7395393131361,78.3636640425698C452.2125171120766,78.3636640425698,452.2125171120766,73.06434832099585,443.6854949110172,73.06434832099585C435.1584727099578,73.06434832099585,435.1584727099578,86.75785251030207,426.6314505088983,86.75785251030207C418.1044283078388,86.75785251030207,418.1044283078388,113.46394213009945,409.5774061067794,113.46394213009945C401.0270222010595,113.46394213009945,401.0270222010595,112.12427483188729,392.47663829533957,112.12427483188729C383.94961609428015,112.12427483188729,383.94961609428015,117.52084901423075,375.42259389322066,117.52084901423075C366.8955716921612,117.52084901423075,366.8955716921612,128.57336837183988,358.36854949110176,128.57336837183988C349.8405538856814,128.57336837183988,349.8405538856814,167.34064265862972,341.3125582802611,167.34064265862972C332.76217437454125,167.34064265862972,332.76217437454125,190.84411939022453,324.21179046882133,190.84411939022453C315.68476826776185,190.84411939022453,315.68476826776185,213.95661245953144,307.1577460667024,213.95661245953144C298.63072386564295,213.95661245953144,298.63072386564295,226.8049667511914,290.10370166458347,226.8049667511914C281.576679463524,226.8049667511914,281.576679463524,249.46110993215873,273.04965726246456,249.46110993215873C264.5002467611055,249.46110993215873,264.5002467611055,265.33303089488794,255.95083625974644,265.33303089488794C247.423814058687,265.33303089488794,247.423814058687,283.90496687963594,238.89679185762753,283.90496687963594C230.36976965656805,283.90496687963594,230.36976965656805,308.7627605270357,221.8427474555086,308.7627605270357C213.31572525444915,308.7627605270357,213.31572525444915,327.5104443394166,204.7887030533897,327.5104443394166C196.2383191476698,327.5104443394166,196.2383191476698,337.7703944608019,187.6879352419499,337.7703944608019C179.16091304089042,337.7703944608019,179.16091304089042,348.87529542262354,170.63389083983097,348.87529542262354C162.10686863877152,348.87529542262354,162.10686863877152,357.7899639321829,153.57984643771204,357.7899639321829C145.05282423665255,357.7899639321829,145.05282423665255,366.24238249205234,136.5258020355931,366.24238249205234C127.97541812987322,366.24238249205234,127.97541812987322,368.32905525844313,119.42503422415332,368.32905525844313C110.89801202309387,368.32905525844313,110.89801202309387,372.1193332661185,102.37098982203442,372.1193332661185C93.84396762097495,372.1193332661185,93.84396762097495,383.21156301475804,85.31694541991548,383.21156301475804C76.78992321885602,383.21156301475804,76.78992321885602,383.8105443153452,68.26290101779655,383.8105443153452C59.712517112076654,383.8105443153452,59.712517112076654,374.08313419078905,51.162133206356756,374.08313419078905C42.635111005297304,374.08313419078905,42.635111005297304,371.83892993248503,34.108088804237845,371.83892993248503C25.581066603178385,371.83892993248503,25.581066603178385,371.4354249588625,17.054044402118922,371.4354249588625C8.527022201059461,371.4354249588625,8.527022201059461,373.13763324940004,0,373.13763324940004Z"><title>Streaming</title></path><path fill="#8c564b" d="M0,207.76670890939997C8.527022201059461,207.76670890939997,8.527022201059461,210.6774736388625,17.054044402118922,210.6774736388625C25.581066603178385,210.6774736388625,25.581066603178385,210.60394833248506,34.108088804237845,210.60394833248506C42.635111005297304,210.60394833248506,42.635111005297304,202.61771355078903,51.162133206356756,202.61771355078903C59.712517112076654,202.61771355078903,59.712517112076654,177.91806531534522,68.26290101779655,177.91806531534522C76.78992321885602,177.91806531534522,76.78992321885602,168.836110494758,85.31694541991548,168.836110494758C93.84396762097495,168.836110494758,93.84396762097495,202.34336516611847,102.37098982203442,202.34336516611847C110.89801202309387,202.34336516611847,110.89801202309387,216.30001400244316,119.42503422415332,216.30001400244316C127.97541812987322,216.30001400244316,127.97541812987322,220.0988287620524,136.5258020355931,220.0988287620524C145.05282423665255,220.0988287620524,145.05282423665255,240.79178326618285,153.57984643771204,240.79178326618285C162.10686863877152,240.79178326618285,162.10686863877152,248.34254379862355,170.63389083983097,248.34254379862355C179.16091304089042,248.34254379862355,179.16091304089042,246.8509897528019,187.6879352419499,246.8509897528019C196.2383191476698,246.8509897528019,196.2383191476698,253.30813847741663,204.7887030533897,253.30813847741663C213.31572525444915,253.30813847741663,213.31572525444915,252.2616304650357,221.8427474555086,252.2616304650357C230.36976965656805,252.2616304650357,230.36976965656805,239.0569678016359,238.89679185762753,239.0569678016359C247.423814058687,239.0569678016359,247.423814058687,234.5331698388879,255.95083625974644,234.5331698388879C264.5002467611055,234.5331698388879,264.5002467611055,235.5772854321587,273.04965726246456,235.5772854321587C281.576679463524,235.5772854321587,281.576679463524,219.72794283319135,290.10370166458347,219.72794283319135C298.63072386564295,219.72794283319135,298.63072386564295,210.45399893453143,307.1577460667024,210.45399893453143C315.68476826776185,210.45399893453143,315.68476826776185,187.93221713702454,324.21179046882133,187.93221713702454C332.76217437454125,187.93221713702454,332.76217437454125,165.15384645102975,341.3125582802611,165.15384645102975C349.8405538856814,165.15384645102975,349.8405538856814,126.33076310863993,358.36854949110176,126.33076310863993C366.8955716921612,126.33076310863993,366.8955716921612,115.11190247883074,375.42259389322066,115.11190247883074C383.94961609428015,115.11190247883074,383.94961609428015,109.37706194468733,392.47663829533957,109.37706194468733C401.0270222010595,109.37706194468733,401.0270222010595,111.2689555504995,409.5774061067794,111.2689555504995C418.1044283078388,111.2689555504995,418.1044283078388,84.88512577410206,426.6314505088983,84.88512577410206C435.1584727099578,84.88512577410206,435.1584727099578,71.23208866919589,443.6854949110172,71.23208866919589C452.2125171120766,71.23208866919589,452.2125171120766,76.76024034916975,460.7395393131361,76.76024034916975C469.289923218856,76.76024034916975,469.289923218856,86.27016995396674,477.84030712457593,86.27016995396674C486.3673293256354,86.27016995396674,486.3673293256354,103.8307879971264,494.89435152669483,103.8307879971264C503.42137372775426,103.8307879971264,503.42137372775426,115.17631245059205,511.94839592881374,115.17631245059205C520.4754181298732,115.17631245059205,520.4754181298732,106.83102304752252,529.0024403309327,106.83102304752252C537.5528242366526,106.83102304752252,537.5528242366526,101.1488157415976,546.1032081423724,101.1488157415976C554.630230343432,101.1488157415976,554.630230343432,103.77735811365832,563.1572525444915,103.77735811365832C571.684274745551,103.77735811365832,571.684274745551,107.58188927611394,580.2112969466103,107.58188927611394C588.7373457433089,107.58188927611394,588.7373457433089,125.29930731135937,597.2633945400075,125.29930731135937C605.8137784457274,125.29930731135937,605.8137784457274,127.79765424542892,614.3641623514474,127.79765424542892C622.8921579568677,127.79765424542892,622.8921579568677,132.07334160733313,631.420153562288,132.07334160733313C639.9471757633474,132.07334160733313,639.9471757633474,128.47311571621583,648.4741979644069,128.47311571621583C657.0012201654663,128.47311571621583,657.0012201654663,123.10049766641633,665.5282423665258,123.10049766641633C674.0786262722456,123.10049766641633,674.0786262722456,117.4517283865309,682.6290101779656,117.4517283865309C691.156032379025,117.4517283865309,691.156032379025,116.10109375529892,699.6830545800844,116.10109375529892C708.2100767811439,116.10109375529892,708.2100767811439,108.6828601849996,716.7370989822035,108.6828601849996C725.2641211832629,108.6828601849996,725.2641211832629,88.21086891089892,733.7911433843224,88.21086891089892C742.3415272900422,88.21086891089892,742.3415272900422,68.48671916098708,750.8919111957622,68.48671916098708C759.4189333968216,68.48671916098708,759.4189333968216,50.667865398677144,767.945955597881,50.667865398677144C776.4729777989405,50.667865398677144,776.4729777989405,34.906591423949116,785,34.906591423949116L785,44.9942887536891C776.4729777989405,44.9942887536891,776.4729777989405,59.31199306561715,767.945955597881,59.31199306561715C759.4189333968216,59.31199306561715,759.4189333968216,76.71775425818707,750.8919111957622,76.71775425818707C742.3415272900422,76.71775425818707,742.3415272900422,95.88699295879897,733.7911433843224,95.88699295879897C725.2641211832629,95.88699295879897,725.2641211832629,115.99893124805955,716.7370989822035,115.99893124805955C708.2100767811439,115.99893124805955,708.2100767811439,121.4865950829589,699.6830545800844,121.4865950829589C691.156032379025,121.4865950829589,691.156032379025,122.14259405823088,682.6290101779656,122.14259405823088C674.0786262722456,122.14259405823088,674.0786262722456,126.78548685129635,665.5282423665258,126.78548685129635C657.0012201654663,126.78548685129635,657.0012201654663,131.29178815725578,648.4741979644069,131.29178815725578C639.9471757633474,131.29178815725578,639.9471757633474,134.21186734369317,631.420153562288,134.21186734369317C622.8921579568677,134.21186734369317,622.8921579568677,129.3778067693289,614.3641623514474,129.3778067693289C605.8137784457274,129.3778067693289,605.8137784457274,126.71472253555943,597.2633945400075,126.71472253555943C588.7373457433089,126.71472253555943,588.7373457433089,108.24538887089395,580.2112969466103,108.24538887089395C571.684274745551,108.24538887089395,571.684274745551,104.42664573265834,563.1572525444915,104.42664573265834C554.630230343432,104.42664573265834,554.630230343432,101.86617383679759,546.1032081423724,101.86617383679759C537.5528242366526,101.86617383679759,537.5528242366526,107.89208756852258,529.0024403309327,107.89208756852258C520.4754181298732,107.89208756852258,520.4754181298732,116.37678879839206,511.94839592881374,116.37678879839206C503.42137372775426,116.37678879839206,503.42137372775426,105.12115239972641,494.89435152669483,105.12115239972641C486.3673293256354,105.12115239972641,486.3673293256354,87.96781327416679,477.84030712457593,87.96781327416679C469.289923218856,87.96781327416679,469.289923218856,78.3636640425698,460.7395393131361,78.3636640425698C452.2125171120766,78.3636640425698,452.2125171120766,73.06434832099585,443.6854949110172,73.06434832099585C435.1584727099578,73.06434832099585,435.1584727099578,86.75785251030207,426.6314505088983,86.75785251030207C418.1044283078388,86.75785251030207,418.1044283078388,113.46394213009945,409.5774061067794,113.46394213009945C401.0270222010595,113.46394213009945,401.0270222010595,112.12427483188729,392.47663829533957,112.12427483188729C383.94961609428015,112.12427483188729,383.94961609428015,117.52084901423075,375.42259389322066,117.52084901423075C366.8955716921612,117.52084901423075,366.8955716921612,128.57336837183988,358.36854949110176,128.57336837183988C349.8405538856814,128.57336837183988,349.8405538856814,167.34064265862972,341.3125582802611,167.34064265862972C332.76217437454125,167.34064265862972,332.76217437454125,190.84411939022453,324.21179046882133,190.84411939022453C315.68476826776185,190.84411939022453,315.68476826776185,213.95661245953144,307.1577460667024,213.95661245953144C298.63072386564295,213.95661245953144,298.63072386564295,226.8049667511914,290.10370166458347,226.8049667511914C281.576679463524,226.8049667511914,281.576679463524,249.46110993215873,273.04965726246456,249.46110993215873C264.5002467611055,249.46110993215873,264.5002467611055,265.33303089488794,255.95083625974644,265.33303089488794C247.423814058687,265.33303089488794,247.423814058687,283.90496687963594,238.89679185762753,283.90496687963594C230.36976965656805,283.90496687963594,230.36976965656805,308.7627605270357,221.8427474555086,308.7627605270357C213.31572525444915,308.7627605270357,213.31572525444915,327.5104443394166,204.7887030533897,327.5104443394166C196.2383191476698,327.5104443394166,196.2383191476698,337.7703944608019,187.6879352419499,337.7703944608019C179.16091304089042,337.7703944608019,179.16091304089042,348.87529542262354,170.63389083983097,348.87529542262354C162.10686863877152,348.87529542262354,162.10686863877152,357.7899639321829,153.57984643771204,357.7899639321829C145.05282423665255,357.7899639321829,145.05282423665255,366.24238249205234,136.5258020355931,366.24238249205234C127.97541812987322,366.24238249205234,127.97541812987322,368.32905525844313,119.42503422415332,368.32905525844313C110.89801202309387,368.32905525844313,110.89801202309387,372.1193332661185,102.37098982203442,372.1193332661185C93.84396762097495,372.1193332661185,93.84396762097495,383.21156301475804,85.31694541991548,383.21156301475804C76.78992321885602,383.21156301475804,76.78992321885602,383.8105443153452,68.26290101779655,383.8105443153452C59.712517112076654,383.8105443153452,59.712517112076654,374.08313419078905,51.162133206356756,374.08313419078905C42.635111005297304,374.08313419078905,42.635111005297304,371.83892993248503,34.108088804237845,371.83892993248503C25.581066603178385,371.83892993248503,25.581066603178385,371.4354249588625,17.054044402118922,371.4354249588625C8.527022201059461,371.4354249588625,8.527022201059461,373.13763324940004,0,373.13763324940004Z"><title>Vinyl</title></path></g><g id="xAxis" transform="translate(0,560)" fill="none" font-size="10" font-family="sans-serif" text-anchor="middle"><path class="domain" stroke="currentColor" d="M0,0H785"/><g class="tick" opacity="1" transform="translate(34.108088804237845,0)"><line stroke="currentColor" y2="6"/><text fill="currentColor" y="9" dy="0.71em">1975</text></g><g class="tick" opacity="1" transform="translate(119.42503422415332,0)"><line stroke="currentColor" y2="6"/><text fill="currentColor" y="9" dy="0.71em">1980</text></g><g class="tick" opacity="1" transform="translate(204.7887030533897,0)"><line stroke="currentColor" y2="6"/><text fill="currentColor" y="9" dy="0.71em">1985</text></g><g class="tick" opacity="1" transform="translate(290.10370166458347,0)"><line stroke="currentColor" y2="6"/><text fill="currentColor" y="9" dy="0.71em">1990</text></g><g class="tick" opacity="1" transform="translate(375.42259389322066,0)"><line stroke="currentColor" y2="6"/><text fill="currentColor" y="9" dy="0.71em">1995</text></g><g class="tick" opacity="1" transform="translate(460.7395393131361,0)"><line stroke="currentColor" y2="6"/><text fill="currentColor" y="9" dy="0.71em">2000</text></g><g class="tick" opacity="1" transform="translate(546.1032081423724,0)"><line stroke="currentColor" y2="6"/><text fill="currentColor" y="9" dy="0.71em">2005</text></g><g class="tick" opacity="1" transform="translate(631.420153562288,0)"><line stroke="currentColor" y2="6"/><text fill="currentColor" y="9" dy="0.71em">2010</text></g><g class="tick" opacity="1" transform="translate(716.7370989822035,0)"><line stroke="currentColor" y2="6"/><text fill="currentColor" y="9" dy="0.71em">2015</text></g></g><text y="556" x="785" text-anchor="end" style="font-family: Arial, sans-serif; font-size: 12px; fill: rgb(123, 123, 123); font-weight: bold;">Year</text><text x="4" text-anchor="start" dominant-baseline="hanging" style="font-family: Arial, sans-serif; font-size: 12px; fill: rgb(123, 123, 123); font-weight: bold;">Revenues in millions (Adjusted for inflation)</text><g id="labels"><text x="255.95083625974644" y="430.4792407496879" text-anchor="middle" alignment-baseline="middle" style="font-family: Arial, sans-serif; font-size: 10px; fill: black; font-weight: bold;">Tape</text><text x="443.6854949110172" y="284.7118219359958" text-anchor="middle" alignment-baseline="middle" style="font-family: Arial, sans-serif; font-size: 10px; fill: black; font-weight: bold;">Disc</text><text x="665.5282423665258" y="190.30010761305638" text-anchor="middle" alignment-baseline="middle" style="font-family: Arial, sans-serif; font-size: 10px; fill: black; font-weight: bold;">Download</text><text x="529.0024403309327" y="116.3846639321126" text-anchor="middle" alignment-baseline="middle" style="font-family: Arial, sans-serif; font-size: 10px; fill: black; font-weight: bold;">Other</text><text x="785" y="133.3073928066891" text-anchor="end" alignment-baseline="middle" style="font-family: Arial, sans-serif; font-size: 10px; fill: black; font-weight: bold;">Streaming</text><text x="85.31694541991548" y="276.0238367547581" text-anchor="middle" alignment-baseline="middle" style="font-family: Arial, sans-serif; font-size: 10px; fill: black; font-weight: bold;">Vinyl</text></g></g><text x="4" y="4" style="font-family: Arial, sans-serif; font-size: 12px; fill: black; font-weight: bold; dominant-baseline: hanging;"/></g></g></svg>